<svg id="Art" xmlns="http://www.w3.org/2000/svg" xmlns:xlink="http://www.w3.org/1999/xlink" width="285" height="285" viewBox="0 0 285 285" y="0px" x="0px"><defs><style>.cls-1{fill:#fff;}.cls-2{fill:url(#Playoffs_Gradient_2);}.cls-3{fill:url(#NHL_SHIELD_8_-_430);}.cls-4{fill:url(#NHL_SHIELD_7_-_430);}.cls-5{fill:url(#NHL_SHIELD_6_-_430);}.cls-6{fill:url(#NHL_SHIELD_5_-_430);}.cls-7{fill:url(#NHL_SHIELD_4_-_430);}.cls-8{fill:url(#NHL_SHIELD_3_-_430);}.cls-9{fill:url(#NHL_SHIELD_2_-_430);}.cls-10{fill:url(#NHL_SHIELD_1_-_430);}.cls-11{fill:url(#Stanley_Cup_Word_Gradient);}.cls-12{fill:url(#Stanley_Cup_Word_Gradient-2);}.cls-13{fill:url(#Stanley_Cup_Word_Gradient-3);}.cls-14{fill:url(#Stanley_Cup_Word_Gradient-4);}.cls-15{fill:url(#Stanley_Cup_Word_Gradient-5);}.cls-16{fill:url(#Stanley_Cup_Word_Gradient-6);}.cls-17{fill:url(#Stanley_Cup_Word_Gradient-7);}.cls-18{fill:url(#Stanley_Cup_Word_Gradient-8);}.cls-19{fill:url(#Stanley_Cup_Word_Gradient-9);}.cls-20{fill:url(#Stanley_Cup_Word_Gradient-10);}.cls-21{fill:url(#Stanley_Cup_Word_Gradient-11);}.cls-22{fill:url(#Stanley_Cup_Word_Gradient-12);}.cls-23{fill:url(#Stanley_Cup_Word_Gradient-13);}.cls-24{fill:url(#Stanley_Cup_Word_Gradient-14);}.cls-25{fill:url(#Stanley_Cup_Word_Gradient-15);}.cls-26{fill:url(#Stanley_Cup_Word_Gradient-16);}.cls-27{fill:url(#Stanley_Cup_Word_Gradient-17);}.cls-28{fill:url(#Stanley_Cup_Word_Gradient-18);}.cls-29{fill:url(#Stanley_Cup_Word_Gradient-19);}.cls-30{fill:#c7c7c8;}.cls-31{fill:#6a7279;}.cls-32{fill:#b4b7ba;}.cls-33{fill:#91959a;}</style><linearGradient id="Playoffs_Gradient_2" x1="190.31" y1="287.33" x2="190.31" y2="423.51" gradientUnits="userSpaceOnUse"><stop offset="0.15" stop-color="#fff"/><stop offset="0.28" stop-color="#fafafa"/><stop offset="0.44" stop-color="#ebebeb"/><stop offset="0.61" stop-color="#d2d3d3"/><stop offset="0.79" stop-color="#afb1b2"/><stop offset="0.97" stop-color="#85898a"/></linearGradient><linearGradient id="NHL_SHIELD_8_-_430" x1="11958.57" y1="11403.86" x2="11983.45" y2="11403.86" gradientTransform="translate(-3128.53 -2786.05) scale(0.28)" gradientUnits="userSpaceOnUse"><stop offset="0.11" stop-color="#fff"/><stop offset="0.27" stop-color="#cecfd0"/><stop offset="0.45" stop-color="#999d9e"/><stop offset="0.54" stop-color="#85898a"/></linearGradient><linearGradient id="NHL_SHIELD_7_-_430" x1="215" y1="355.09" x2="215" y2="335.57" gradientUnits="userSpaceOnUse"><stop offset="0" stop-color="#fff"/><stop offset="0.35" stop-color="#fff"/><stop offset="0.56" stop-color="#85898a"/><stop offset="1" stop-color="#85898a"/></linearGradient><linearGradient id="NHL_SHIELD_6_-_430" x1="164.05" y1="377.42" x2="190.34" y2="377.42" gradientUnits="userSpaceOnUse"><stop offset="0.15" stop-color="#fff"/><stop offset="0.21" stop-color="#fafafa"/><stop offset="0.28" stop-color="#ebebeb"/><stop offset="0.35" stop-color="#d2d3d3"/><stop offset="0.43" stop-color="#afb1b2"/><stop offset="0.51" stop-color="#85898a"/></linearGradient><linearGradient id="NHL_SHIELD_5_-_430" x1="205.94" y1="376.1" x2="174.77" y2="331.59" gradientUnits="userSpaceOnUse"><stop offset="0" stop-color="#85898a"/><stop offset="0.04" stop-color="#989b9c"/><stop offset="0.13" stop-color="#c1c2c2"/><stop offset="0.21" stop-color="#dadada"/><stop offset="0.25" stop-color="#e3e3e3"/><stop offset="0.75" stop-color="#e3e3e3"/><stop offset="0.8" stop-color="#dbdbdc"/><stop offset="0.86" stop-color="#c5c7c7"/><stop offset="0.94" stop-color="#a2a5a5"/><stop offset="1" stop-color="#85898a"/></linearGradient><linearGradient id="NHL_SHIELD_4_-_430" x1="173.11" y1="328.71" x2="190.34" y2="328.71" gradientUnits="userSpaceOnUse"><stop offset="0.25" stop-color="#fff"/><stop offset="0.33" stop-color="#fafafa"/><stop offset="0.43" stop-color="#ebebeb"/><stop offset="0.55" stop-color="#d2d3d3"/><stop offset="0.67" stop-color="#afb1b2"/><stop offset="0.79" stop-color="#85898a"/></linearGradient><linearGradient id="NHL_SHIELD_3_-_430" x1="190.34" y1="371.03" x2="217.69" y2="371.03" gradientUnits="userSpaceOnUse"><stop offset="0.2" stop-color="#fff"/><stop offset="0.32" stop-color="#fafbfb"/><stop offset="0.46" stop-color="#edeeee"/><stop offset="0.6" stop-color="#d7d8d8"/><stop offset="0.75" stop-color="#b8baba"/><stop offset="0.9" stop-color="#909394"/><stop offset="0.93" stop-color="#85898a"/></linearGradient><linearGradient id="NHL_SHIELD_2_-_430" x1="190.34" y1="328.71" x2="207.58" y2="328.71" xlink:href="#NHL_SHIELD_4_-_430"/><linearGradient id="NHL_SHIELD_1_-_430" x1="163.02" y1="330.95" x2="173.97" y2="330.95" gradientUnits="userSpaceOnUse"><stop offset="0.39" stop-color="#fff"/><stop offset="0.46" stop-color="#fafafa"/><stop offset="0.55" stop-color="#ebebeb"/><stop offset="0.65" stop-color="#d2d3d3"/><stop offset="0.76" stop-color="#afb1b2"/><stop offset="0.87" stop-color="#85898a"/></linearGradient><linearGradient id="Stanley_Cup_Word_Gradient" x1="301.34" y1="297.27" x2="301.34" y2="285.07" gradientUnits="userSpaceOnUse"><stop offset="0" stop-color="#fff"/><stop offset="0.15" stop-color="#fff"/><stop offset="0.25" stop-color="#fafafa"/><stop offset="0.36" stop-color="#ebebeb"/><stop offset="0.49" stop-color="#d1d2d3"/><stop offset="0.63" stop-color="#aeb0b2"/><stop offset="0.77" stop-color="#828487"/><stop offset="0.82" stop-color="#6f7175"/><stop offset="1" stop-color="#6f7175"/></linearGradient><linearGradient id="Stanley_Cup_Word_Gradient-2" x1="216.95" y1="297.06" x2="216.95" y2="286.01" xlink:href="#Stanley_Cup_Word_Gradient"/><linearGradient id="Stanley_Cup_Word_Gradient-3" x1="194.88" y1="297.37" x2="194.88" y2="284.78" xlink:href="#Stanley_Cup_Word_Gradient"/><linearGradient id="Stanley_Cup_Word_Gradient-4" x1="173.8" y1="297.31" x2="173.8" y2="285.02" xlink:href="#Stanley_Cup_Word_Gradient"/><linearGradient id="Stanley_Cup_Word_Gradient-5" x1="156.04" y1="297.14" x2="156.04" y2="285.68" xlink:href="#Stanley_Cup_Word_Gradient"/><linearGradient id="Stanley_Cup_Word_Gradient-6" x1="142.11" y1="296.83" x2="142.11" y2="286.92" xlink:href="#Stanley_Cup_Word_Gradient"/><linearGradient id="Stanley_Cup_Word_Gradient-7" x1="123.32" y1="296.65" x2="123.32" y2="287.63" xlink:href="#Stanley_Cup_Word_Gradient"/><linearGradient id="Stanley_Cup_Word_Gradient-8" x1="103.71" y1="296.44" x2="103.71" y2="288.46" xlink:href="#Stanley_Cup_Word_Gradient"/><linearGradient id="Stanley_Cup_Word_Gradient-9" x1="276.77" y1="297.59" x2="276.77" y2="285.41" xlink:href="#Stanley_Cup_Word_Gradient"/><linearGradient id="Stanley_Cup_Word_Gradient-10" x1="248.48" y1="299.11" x2="248.48" y2="289.45" xlink:href="#Stanley_Cup_Word_Gradient"/><linearGradient id="Stanley_Cup_Word_Gradient-11" x1="81.25" y1="299.54" x2="81.25" y2="288.46" xlink:href="#Stanley_Cup_Word_Gradient"/><linearGradient id="Stanley_Cup_Word_Gradient-12" x1="132" y1="324.38" x2="132" y2="313.11" xlink:href="#Stanley_Cup_Word_Gradient"/><linearGradient id="Stanley_Cup_Word_Gradient-13" x1="155.79" y1="324.38" x2="155.79" y2="313.1" xlink:href="#Stanley_Cup_Word_Gradient"/><linearGradient id="Stanley_Cup_Word_Gradient-14" x1="179.83" y1="324.4" x2="179.83" y2="313.03" xlink:href="#Stanley_Cup_Word_Gradient"/><linearGradient id="Stanley_Cup_Word_Gradient-15" x1="226.73" y1="324.43" x2="226.73" y2="312.89" xlink:href="#Stanley_Cup_Word_Gradient"/><linearGradient id="Stanley_Cup_Word_Gradient-16" x1="247.6" y1="324.43" x2="247.61" y2="312.87" xlink:href="#Stanley_Cup_Word_Gradient"/><linearGradient id="Stanley_Cup_Word_Gradient-17" x1="110.6" y1="324.38" x2="110.6" y2="313.11" xlink:href="#Stanley_Cup_Word_Gradient"/><linearGradient id="Stanley_Cup_Word_Gradient-18" x1="204.55" y1="324.38" x2="204.55" y2="312.97" xlink:href="#Stanley_Cup_Word_Gradient"/><linearGradient id="Stanley_Cup_Word_Gradient-19" x1="269.83" y1="324.38" x2="269.83" y2="312.97" xlink:href="#Stanley_Cup_Word_Gradient"/></defs><title>NHL_2018_StanleyCupPlayoffs_English_Primary_onlight</title><path class="cls-1" d="M142.37,398.48l48,19.12,48-19.12c4.64-1.85,9.83-8,10.88-12.86l12.41-57.41h-2.16l-12.32,57c-0.91,4.23-5.58,9.75-9.6,11.35l-47.19,18.81-47.19-18.81c-4-1.6-8.69-7.12-9.6-11.35l-12.32-57h-2.16l12.41,57.41C132.54,390.5,137.73,396.63,142.37,398.48Z" transform="translate(-60.01 -164.33)"/><path class="cls-1" d="M202.9,213.56V212c-1-.11-2.15-0.22-3.5-0.31v1.54C200.74,213.34,201.9,213.44,202.9,213.56Z" transform="translate(-60.01 -164.33)"/><path class="cls-1" d="M185.17,211.53l-2.25.09v1.54l2.25-.09v-1.54Z" transform="translate(-60.01 -164.33)"/><path class="cls-1" d="M182.73,220.16l2.44-.05v-5.42a1.4,1.4,0,0,1,.21-0.72l-2.35.09a1.46,1.46,0,0,0-.3.85v5.26Z" transform="translate(-60.01 -164.33)"/><path class="cls-1" d="M202.9,214.43q-1.54-.16-3.5-0.29v6.06c1.33,0,2.49.11,3.5,0.17v-5.94Z" transform="translate(-60.01 -164.33)"/><path class="cls-1" d="M202.42,224c1.45,0.05,2.71.12,3.8,0.18a5.53,5.53,0,0,0-2.91-2.78c-1-.06-2.25-0.11-3.66-0.15C200.31,221.53,202,222.45,202.42,224Z" transform="translate(-60.01 -164.33)"/><path class="cls-1" d="M184.06,223.84a9.7,9.7,0,0,1,1-2.69l-2.22,0a9.52,9.52,0,0,0-.95,2.69Z" transform="translate(-60.01 -164.33)"/><path class="cls-1" d="M181.82,232.62l2.21,0v-8l-2.21,0v8Z" transform="translate(-60.01 -164.33)"/><path class="cls-1" d="M206.32,224.9c-1.08-.06-2.33-0.11-3.75-0.16v8c1.45,0,2.69.09,3.75,0.14V224.9Z" transform="translate(-60.01 -164.33)"/><path class="cls-1" d="M203.71,241.63l4.12,0.09c-0.16-4.28-5.65-4.33-1.79-7.24l-3.57-.18C198.64,237,203.56,237.31,203.71,241.63Z" transform="translate(-60.01 -164.33)"/><path class="cls-1" d="M184.28,234.07l-2.15.06c1.72,3.27-1.43,3.47-1.18,7.44l2.18,0C182.9,237.58,186.07,237.4,184.28,234.07Z" transform="translate(-60.01 -164.33)"/><path class="cls-1" d="M207.81,242.83l-4.12,0v7.08l4.12,0v-7.09Z" transform="translate(-60.01 -164.33)"/><path class="cls-1" d="M183.15,242.77h-2.24v7.06h2.24v-7.06Z" transform="translate(-60.01 -164.33)"/><path class="cls-1" d="M183.42,251.36h-2.3c1.87,3.38-1.83,3.18-1.39,7.33l2.31,0C181.59,254.55,185.31,254.76,183.42,251.36Z" transform="translate(-60.01 -164.33)"/><path class="cls-1" d="M211.65,258.48c0.63-4-5.85-4.23-2.3-7l-3.37-.05c-3.36,3.79,2.7,3.37,1.62,7.16Z" transform="translate(-60.01 -164.33)"/><path class="cls-1" d="M206.17,260.34c3.56,0.78,12.09,3,12.09,6.62,0,2.15-2.83,1.77-27.93,3.07,0,0,24.52.28,41.62-1.25a1.79,1.79,0,0,0-1-1.14c-3.39.31-7.24,0.62-7.24,0.62,0.79-5.29-8.36-7.33-12.9-8Z" transform="translate(-60.01 -164.33)"/><path class="cls-1" d="M176.07,269.19l2.94,0c-0.27-5.33,2.19-7.94,3.25-8.81l-2.91,0C178.31,261.24,175.81,263.83,176.07,269.19Z" transform="translate(-60.01 -164.33)"/><path class="cls-1" d="M184.28,202.37q0.91-.1,2-0.17v-0.59c-0.71,0-1.37.1-2,.16v0.6Z" transform="translate(-60.01 -164.33)"/><path class="cls-1" d="M198.47,202c-0.61-.1-1.28-0.2-2-0.27v0.6c0.76,0.08,1.43.17,2,.27V202Z" transform="translate(-60.01 -164.33)"/><path class="cls-1" d="M172.75,171.63l-0.13-1.46-1.88.26,0.12,1.46Z" transform="translate(-60.01 -164.33)"/><path class="cls-1" d="M214.79,172.87c0-.49,0-1,0-1.47-1.2-.31-2.67-0.62-4.45-0.9q0,0.79,0,1.49C212.17,172.26,213.61,172.56,214.79,172.87Z" transform="translate(-60.01 -164.33)"/><path class="cls-1" d="M206.1,171.42c0-.5-0.11-1-0.18-1.5-4-.41-9.14-0.68-15.58-0.68h-2.06c-0.09.5-.16,1-0.23,1.48h2.29A155.09,155.09,0,0,1,206.1,171.42Z" transform="translate(-60.01 -164.33)"/><path class="cls-1" d="M211.33,177.48a4.8,4.8,0,0,1,3.27-1.55c0-.45.1-1.26,0.15-2.19-1.17-.3-2.59-0.6-4.3-0.87,0,1.9,0,3.2,0,3.79A8.46,8.46,0,0,1,211.33,177.48Z" transform="translate(-60.01 -164.33)"/><path class="cls-1" d="M198.29,177.18a8.83,8.83,0,0,1,6.36-2.43,10.18,10.18,0,0,1,1.6.13c0-.84,0-1.7-0.08-2.56a154.88,154.88,0,0,0-15.83-.7h-2.39c-0.1,1-.15,2.07-0.17,3.07a13.86,13.86,0,0,1,2.56-.24A12.12,12.12,0,0,1,198.29,177.18Z" transform="translate(-60.01 -164.33)"/><path class="cls-1" d="M171.22,176a8.89,8.89,0,0,1,1.84-.82l-0.24-2.69-1.88.25Z" transform="translate(-60.01 -164.33)"/><path class="cls-1" d="M209.84,186.51c1.69,0,.48,2,1.25,2,0.45,0,.24-1.14,1.12-1.28,0.48-1,1.68-4.28,1.72-10.53a4.61,4.61,0,0,0-2.59,1.87,6.64,6.64,0,0,0-1.39-1.4,25.57,25.57,0,0,1-1.71,9.82,0.91,0.91,0,0,0,.35.06C209.11,187.09,209,186.51,209.84,186.51Z" transform="translate(-60.01 -164.33)"/><path class="cls-1" d="M171.78,182.64c0.07,0.82.31,1.85,0.89,1.85,0.8,0,.24-1.79,1-2.44l-0.54-6.12a8.25,8.25,0,0,0-1.84.88Z" transform="translate(-60.01 -164.33)"/><path class="cls-1" d="M191.23,188c1.77,0,.44-2.52,2.53-2.52,1.51,0,1,1.59,2.26,1.59,1.76,0,.68-3.83,2.76-3.83,1.31,0,.9,1.3,2.14,1.3,1.63,0,.53-3.39,2.34-3.39s0.62,2.66,2.08,2.83a51.44,51.44,0,0,0,.91-8.37,9.43,9.43,0,0,0-1.59-.13,7.77,7.77,0,0,0-6.32,2.74,11,11,0,0,0-8-3,13.08,13.08,0,0,0-2.56.25,42.1,42.1,0,0,0,1.74,11.42A1.81,1.81,0,0,0,191.23,188Z" transform="translate(-60.01 -164.33)"/><path class="cls-1" d="M166.07,188.06c-0.94,0,.49,1.3.6,3.51C166.66,191.57,166.78,188.06,166.07,188.06Z" transform="translate(-60.01 -164.33)"/><path class="cls-1" d="M168.18,186.66a0.62,0.62,0,0,0-.61.61c0,0.54,1.31,1.1,1.36,4.84C169.06,189.67,169.18,186.66,168.18,186.66Z" transform="translate(-60.01 -164.33)"/><path class="cls-1" d="M171.21,190.88c0.76-2.48,1.42-6.8-.08-6.8a0.78,0.78,0,0,0-.8.8C170.34,185.71,171.59,186.07,171.21,190.88Z" transform="translate(-60.01 -164.33)"/><path class="cls-1" d="M174.12,192.81c0.91-4.94,1.67-10.51.27-10.51a0.68,0.68,0,0,0-.74.61C173.66,183.91,175,184.47,174.12,192.81Z" transform="translate(-60.01 -164.33)"/><path class="cls-1" d="M178.55,184a0.69,0.69,0,0,0-.71.71c0,0.48,1.39,1.57-.48,9.16C178.92,191.48,180.14,184,178.55,184Z" transform="translate(-60.01 -164.33)"/><path class="cls-1" d="M184.43,186.95a1,1,0,0,0-1-1c-2,0-.12,3.51-2.83,9.39a17.77,17.77,0,0,0,3.1-6.87C183.84,187.76,184.43,187.58,184.43,186.95Z" transform="translate(-60.01 -164.33)"/><path class="cls-1" d="M189.25,187.72a0.91,0.91,0,1,0-1.82.06c0,3.11-1.85,4.4-4,8.8C186.46,191.53,189.25,190.45,189.25,187.72Z" transform="translate(-60.01 -164.33)"/><path class="cls-1" d="M192.85,187c-0.56,4.76-2.64,2.8-5.17,8.12,2.35-4,4.82-2.23,6.48-8.35C194.32,186.18,193,185.58,192.85,187Z" transform="translate(-60.01 -164.33)"/><path class="cls-1" d="M198,184.71c0,5.38-2.87,6.08-6.74,10.16,3.74-2.89,8.34-5,8.34-10.16A0.8,0.8,0,1,0,198,184.71Z" transform="translate(-60.01 -164.33)"/><path class="cls-1" d="M202.47,182.67A14.41,14.41,0,0,1,196.7,194c3.91-1.47,7.37-8.28,7.37-11.58C204.06,181.34,202.47,181.29,202.47,182.67Z" transform="translate(-60.01 -164.33)"/><path class="cls-1" d="M200.62,194.44s5.35-2.43,7.14-10.29c0.17-.73-1.21-1-1.28,0C205.92,190.53,200.62,194.44,200.62,194.44Z" transform="translate(-60.01 -164.33)"/><path class="cls-1" d="M209.23,187.61c-0.79,3.66-4.4,6.77-4.4,6.77s3.21-1.66,5.54-6.58A0.58,0.58,0,1,0,209.23,187.61Z" transform="translate(-60.01 -164.33)"/><path class="cls-1" d="M211.77,188.25a11.85,11.85,0,0,1-4.35,6.84,13.19,13.19,0,0,0,5.57-6.51C213.21,188,211.95,187.36,211.77,188.25Z" transform="translate(-60.01 -164.33)"/><path class="cls-1" d="M212.11,193.59a12.58,12.58,0,0,0,3.73-5.45,0.54,0.54,0,1,0-1.08-.09C214.47,190.81,212.11,193.59,212.11,193.59Z" transform="translate(-60.01 -164.33)"/><path class="cls-1" d="M182.92,210.9l2.25-.11v-0.25a1.52,1.52,0,0,1-.43-0.11l-1.83.11v0.36Z" transform="translate(-60.01 -164.33)"/><path class="cls-1" d="M199.4,210.64V211c1.34,0.1,2.5.23,3.5,0.35V211l-1.4-.15a1.1,1.1,0,0,1-1.13-.11Z" transform="translate(-60.01 -164.33)"/><path class="cls-1" d="M199.87,207.95a3.08,3.08,0,0,1-1-2.63c-0.51-.07-1.19-0.15-2-0.23a3.38,3.38,0,0,0,.61,2.49,1.65,1.65,0,0,1,1.54.48l0.52,0.07A0.83,0.83,0,0,1,199.87,207.95Z" transform="translate(-60.01 -164.33)"/><path class="cls-1" d="M186.66,207.6a5.24,5.24,0,0,0,.16-2.76l-1.95.14a5,5,0,0,1-.39,2.75h0.08a1.34,1.34,0,0,1,1.83-.12h0.27Z" transform="translate(-60.01 -164.33)"/><path class="cls-1" d="M198.32,207.86c-0.61.07-.32,1.77,0.55,1.81S198.93,207.78,198.32,207.86Z" transform="translate(-60.01 -164.33)"/><path class="cls-1" d="M206,210.54c0.57-.3-0.47-1.68-0.85-1.64S205.42,210.83,206,210.54Z" transform="translate(-60.01 -164.33)"/><path class="cls-1" d="M195.51,207.6c-0.73,0-.44,2,0.56,2S196.14,207.62,195.51,207.6Z" transform="translate(-60.01 -164.33)"/><path class="cls-1" d="M192.8,209.34c0.9,0,.35-2-0.69-2C191.59,207.38,191.79,209.34,192.8,209.34Z" transform="translate(-60.01 -164.33)"/><path class="cls-1" d="M188.89,209.34c0.83-.25-0.18-1.38,0-1.83C187.45,206.73,187.78,209.67,188.89,209.34Z" transform="translate(-60.01 -164.33)"/><path class="cls-1" d="M207.29,210.71c0.4-.21-0.39-1.35-0.69-1.4S206.87,210.93,207.29,210.71Z" transform="translate(-60.01 -164.33)"/><path class="cls-1" d="M208.09,210.91c0.37-.28-0.28-1.18-0.53-1.13C207.46,209.88,207.73,211.18,208.09,210.91Z" transform="translate(-60.01 -164.33)"/><path class="cls-1" d="M204,210.28c0.83-.2-0.12-1.7-0.63-1.74S203.21,210.47,204,210.28Z" transform="translate(-60.01 -164.33)"/><path class="cls-1" d="M201.66,210.07c0.83-.2-0.11-1.8-0.62-1.84S200.86,210.27,201.66,210.07Z" transform="translate(-60.01 -164.33)"/><path class="cls-1" d="M175.24,209.8c0.39,0.22.43-.69,0.85-1.09C175.14,208.71,175,209.65,175.24,209.8Z" transform="translate(-60.01 -164.33)"/><path class="cls-1" d="M173.7,210.08c0.26,0.13.36-.65,0.62-0.92A0.7,0.7,0,0,0,173.7,210.08Z" transform="translate(-60.01 -164.33)"/><path class="cls-1" d="M185.48,209.45c0.74,0,0-1.16.28-1.66C184.64,206.95,184.53,209.49,185.48,209.45Z" transform="translate(-60.01 -164.33)"/><path class="cls-1" d="M182.43,209.39c0.63,0.15.39-1.09,0.68-1.49C182,207.32,181.78,209.24,182.43,209.39Z" transform="translate(-60.01 -164.33)"/><path class="cls-1" d="M177.31,209.63c0.42,0.15.49-.85,0.8-1.21C177.17,208.26,176.8,209.44,177.31,209.63Z" transform="translate(-60.01 -164.33)"/><path class="cls-1" d="M179.79,209.53c0.5,0.15.35-.94,0.73-1.35C179.37,208,179.13,209.33,179.79,209.53Z" transform="translate(-60.01 -164.33)"/><path class="cls-1" d="M168.23,349.12c-0.77,4.87-4,8.87-4,13.66a17.42,17.42,0,0,0,.71,5c2,6.75,8.06,10.5,13.91,12-9-2.28-13.93-9.83-13.93-17C164.92,356.91,167.66,354.68,168.23,349.12Z" transform="translate(-60.01 -164.33)"/><path class="cls-1" d="M201.83,379.81c8.12-2.05,14.57-8,14.57-17a19.36,19.36,0,0,0-1.76-7.69c-1.09-2.65-2.29-5.05-2.29-8,0,7.14,3.42,9.16,3.42,15.7C215.77,370,210.83,377.53,201.83,379.81Z" transform="translate(-60.01 -164.33)"/><path class="cls-1" d="M296.44,295.67l1.75-6.86h3.09c5.81,0,11.22-2.71,12.32-7s-2.92-7-8.73-7H294.35L289,295.67h7.43Zm4.08-16h4.08a1.58,1.58,0,0,1,1.56,2.1,2.9,2.9,0,0,1-2.64,2.1h-4.08Zm-1.66,1.87-0.9,3.52h5.27a4.54,4.54,0,0,0,4.09-3.16c1.76,0.17,3.37.37,4.86,0.59-1.41,3.36-6.25,5.11-10.59,5.11h-4.28l-1.76,6.86H290.5l3.28-12.83Q296.44,281.57,298.87,281.57Z" transform="translate(-60.01 -164.33)"/><path class="cls-1" d="M136.77,295.67h7.43l3.29-12.84,5.06,12.84h8l5.34-20.88h-7.43l-3,11.64-4.58-11.64H139.6a4.9,4.9,0,0,1,1.26,4.91Zm16.17-12.18,2.73,6.93,1.89-7.4,5.21-.56-3.08,12h-6.21l-4.19-10.64Zm-7,.66-2.65,10.33h-5.06l2.53-9.89Z" transform="translate(-60.01 -164.33)"/><path class="cls-1" d="M181.41,295.67l2.87-4.91H172.46l4.09-16h-7.43l-5.34,20.88h17.63Zm-7.77-14.14L171,291.95h11.36l-1.49,2.54H165.26l3.22-12.58Q171.1,281.69,173.64,281.53Z" transform="translate(-60.01 -164.33)"/><path class="cls-1" d="M217.89,282.42l-3.24-7.62H187.22a4.9,4.9,0,0,1,1.26,4.91l-4.09,16h18.56l2.87-4.91H193.08l0.75-2.92h10l1.25-4.91h-10l0.83-3.23h10.63l1.09-4.25L213,287.29l-2.15,8.38h7.43l2.14-8.37L233,274.79h-7.9Zm-14.28,1.71L203,286.66h-10l-1.35,5.29h12.29l-1.49,2.54H185.88l3.41-13.33q2.58,0,5,.14l-0.72,2.82h10Zm15.72,2.78-1.94,7.59h-5.07l1.94-7.57L212.48,283q2.41,0.37,4.54.75l0.32,0.76,0.57-.59c1.32,0.26,2.55.51,3.67,0.76Z" transform="translate(-60.01 -164.33)"/><path class="cls-1" d="M118.13,295.67l2.64-4.81h7l0.38,4.81h8l-3-20.88H123.5l-13.58,20.88h8.22Zm8.76-16,0.53,6.75h-4.24Zm-4.58,6.1-1,1.84h7.46l-0.17-2.19,4.72-.31,1.36,9.32H129.3l-0.38-4.81h-8.73l-2.64,4.81H112l5.5-8.45Z" transform="translate(-60.01 -164.33)"/><path class="cls-1" d="M102.73,279.7l-4.09,16h7.43l4.09-16h6.62l2.5-4.91H97.37l-2.5,4.91h7.86Zm2.46,14.79h-5.06l2.08-8.15q2.46,0,5.07,0Z" transform="translate(-60.01 -164.33)"/><path class="cls-1" d="M274.09,296c6.56,0,12.26-1.53,13.94-8.09l3.35-13.11h-7.43l-3.35,13.11c-0.63,2.45-2.8,3.18-5.25,3.18s-4.25-.73-3.62-3.18l3.36-13.11h-7.44l-3.35,13.11C262.61,294.45,267.53,296,274.09,296Zm-8.62-8.09,0.87-3.4,5.24-.68-1,4.08c-0.42,1.63-.38,4.36,4.5,4.36,3.65,0,6-1.57,6.74-4.36l1.41-5.52q2.68-.25,5.18-0.44l-1.53,6c-1.24,4.84-5,6.9-12.45,6.9S264.23,292.74,265.47,287.9Z" transform="translate(-60.01 -164.33)"/><path class="cls-1" d="M251.77,298.17a33.37,33.37,0,0,0,9.71-1.24l-0.71-5a23,23,0,0,1-7,.94c-9.05,0-9.74-5.67-9-8.37,1.05-4.12,4.51-8.37,12.65-8.37a21.66,21.66,0,0,1,6,.71l2.8-4.82a23.33,23.33,0,0,0-8-1.19c-14.35,0-20.46,7-22.18,13.67C234.45,290.33,238.37,298.17,251.77,298.17Zm-8.45-11.42c0.13,3.29,2.32,7.31,10.16,7.31a26.19,26.19,0,0,0,6.23-.69l0.39,2.79a36.38,36.38,0,0,1-8,.84c-10.35,0-15-4.9-15.22-10C238.72,287,240.85,286.88,243.32,286.74Z" transform="translate(-60.01 -164.33)"/><path class="cls-1" d="M93.46,290.91c2.31-9-13-8.7-11.95-12.75,0.3-1.18,2.31-2,5.27-2a16.59,16.59,0,0,1,6.56,1.22L96,272.26a22.09,22.09,0,0,0-8.47-1.44c-9.09,0-13.51,3.67-14.33,6.88-2.32,9.06,13,8.35,11.89,12.81-0.4,1.57-2.82,2.36-5.34,2.36a20.17,20.17,0,0,1-8.5-1.73l-2.78,5s3.31,2,10.55,2S92.25,295.66,93.46,290.91Zm-21.89,1.78a22.39,22.39,0,0,0,7.83,1.36c3.6,0,6.28-1.39,6.83-3.54,0.67-2.61-2.11-3.8-5.17-5.08,3,0.28,6.27.52,9.93,0.7a4.63,4.63,0,0,1,1.28,4.78c-1.15,4.48-7.73,6.07-13,6.07A24.09,24.09,0,0,1,70,295.45Z" transform="translate(-60.01 -164.33)"/><path class="cls-1" d="M127.31,302.33L122,323.21H139.6l2.87-4.91H130.66l4.09-16h-7.43Zm13.22,17.16L139,322H123.46l3.43-13.42,5.07,0-2.79,10.91h11.36Z" transform="translate(-60.01 -164.33)"/><path class="cls-1" d="M156,302.33l-13.58,20.88h8.22l2.64-4.81h7l0.38,4.81h8l-3-20.88H156ZM159.9,314h-4.24l3.71-6.75Zm1.88,8-0.38-4.81h-8.73L150,322h-5.59l8.47-13,4.17,0.17-3.31,6h7.46l-0.46-5.85,4.55,0.24L167.15,322h-5.37Z" transform="translate(-60.01 -164.33)"/><path class="cls-1" d="M180.14,310l-3.24-7.62h-7.32l5.65,12.5-2.14,8.38h7.43l2.14-8.37,12.64-12.51h-7.9Zm1.43,4.49L179.63,322h-5.06l1.94-7.57-1.94-4.29,4.36,0.31L179.6,312l1.34-1.41,4.15,0.33Z" transform="translate(-60.01 -164.33)"/><path class="cls-1" d="M218.72,323.21h7.43l2-7.83h4.66l4.18-4.91h-7.59l0.83-3.24h7.7l4.19-4.91H221.54a4.9,4.9,0,0,1,1.26,4.91Zm14.54-10-0.81,1h-5.17l-2,7.83H220.2l2.3-9Q228.08,313.18,233.25,313.25Z" transform="translate(-60.01 -164.33)"/><path class="cls-1" d="M239.51,323.21h7.43l2-7.83h4.66l4.19-4.91H250.2l0.83-3.24h7.7l4.18-4.91H242.34a4.9,4.9,0,0,1,1.26,4.91ZM254.22,313l-1,1.16h-5.17l-2,7.83H241l2.24-8.76Q249,313.2,254.22,313Z" transform="translate(-60.01 -164.33)"/><path class="cls-1" d="M98.09,323.21h7.43l1.76-6.86h3.09c5.81,0,11.22-2.71,12.32-7s-2.92-7-8.73-7h-13a4.9,4.9,0,0,1,1.26,4.91Zm11.52-16h4.08a1.58,1.58,0,0,1,1.56,2.1,2.89,2.89,0,0,1-2.64,2.1h-4.08Zm-6.84,2.31q2.47-.18,5.15-0.33L107,312.63h5.27a4.53,4.53,0,0,0,4.13-3.29,3.2,3.2,0,0,0,.09-0.51l5.1-.14a4.78,4.78,0,0,1-.12.65c-1,3.82-6.19,5.83-10.83,5.83H106.4L104.64,322H99.58Z" transform="translate(-60.01 -164.33)"/><path class="cls-1" d="M207.54,302c-10.67,0-15,4.81-16.51,10.75s0.33,10.75,11,10.75,15-4.82,16.5-10.75S218.21,302,207.54,302Zm-8.36,10.75c0.83-3.23,2.8-5.85,7.11-5.85s4.94,2.62,4.11,5.85-2.8,5.85-7.11,5.85S198.35,316,199.18,312.77Zm3.16,9.57c-11.26,0-11.17-5.46-10.12-9.57,0.1-.4.22-0.82,0.37-1.24l5.66,0.38c-0.09.28-.18,0.57-0.25,0.86-1.16,4.54.61,7,5,7s7.43-2.5,8.59-7l0-.14,5.72,0.23C216.26,317,213.52,322.34,202.34,322.34Z" transform="translate(-60.01 -164.33)"/><path class="cls-1" d="M274.16,306.92a14.22,14.22,0,0,1,5.25.95l2.42-4.75a18.54,18.54,0,0,0-7-1.11c-6.52,0-11.1,2.24-12,5.66-1.81,7.09,10.33,7.35,9.77,9.54-0.21.82-1.81,1.4-4,1.4a17,17,0,0,1-6.94-1.41l-2.55,4.69s2.73,1.62,8.84,1.62,11-2,12-5.93c1.74-6.79-10.32-7.39-9.79-9.46C270.29,307.63,271.63,306.92,274.16,306.92Zm-0.1,4.95c2.7,1.14,5.47,2.76,4.71,5.72-0.9,3.5-6,4.75-10.47,4.75a21.18,21.18,0,0,1-7.53-1.14l1.32-2.44a19,19,0,0,0,6.25,1c3,0,5-1,5.46-2.58,0.61-2.38-4.11-3-7.25-4.77Q270.62,312.17,274.06,311.87Z" transform="translate(-60.01 -164.33)"/><path class="cls-2" d="M140.33,403.58l50,19.93,50-19.93c6.37-2.54,12.77-10.1,14.22-16.81l12.6-58.26a33.41,33.41,0,0,1-4.11-.3h-1.45L249.2,385.61c-1.06,4.88-6.24,11-10.88,12.86l-48,19.12-48-19.12c-4.64-1.85-9.83-8-10.88-12.86l-12.41-57.41h-5.63l12.67,58.57C127.56,393.48,134,401,140.33,403.58Z" transform="translate(-60.01 -164.33)"/><path class="cls-3" d="M164.23,362.78c0-4.79,3.23-8.79,4-13.66a20,20,0,0,0,.1-2,23.34,23.34,0,0,0-2.66-10.27L163,335.57l1.8,4.08a18.46,18.46,0,0,1,1.59,7.44c0,7-3.42,8.36-3.42,15.68a18.61,18.61,0,0,0,1.06,6.24,4.05,4.05,0,0,1,.89-1.19A17.42,17.42,0,0,1,164.23,362.78Z" transform="translate(-60.01 -164.33)"/><path class="cls-4" d="M212.35,347.08c0,3,1.2,5.35,2.29,8l1.43,0a18.88,18.88,0,0,1-1.8-7.94,18.48,18.48,0,0,1,1.59-7.44l1.8-4.08L215,336.81A23.33,23.33,0,0,0,212.35,347.08Z" transform="translate(-60.01 -164.33)"/><path class="cls-5" d="M190.34,384.17s-1.81-2-2.09-2.22c-2.17-.78-5.13-1.06-9.4-2.14-5.84-1.48-11.88-5.24-13.91-12a4.05,4.05,0,0,0-.89,1.19,20.6,20.6,0,0,0,14.32,12.68c4,1,5.85,1.11,8.83,1.94,0.39,0.41,3.14,3.38,3.14,3.38v-2.85Z" transform="translate(-60.01 -164.33)"/><path class="cls-6" d="M166.83,362.78c0,8.32,6.48,13.62,12.5,15.14,4.76,1.21,7.87,1.35,10,2.36,0,0,.76.7,1,1,0.29-.32,1-1,1-1,2.09-1,5.2-1.15,10-2.36,6-1.53,12.5-6.82,12.5-15.14,0-6-3.42-8.14-3.42-15.7a22.57,22.57,0,0,1,1.92-9s-4.44-.9-6.51-6.52a11.32,11.32,0,0,1-7,2.75,12.67,12.67,0,0,1-8.48-3.58,12.67,12.67,0,0,1-8.48,3.58,11.31,11.31,0,0,1-7-2.75c-2.07,5.62-6.51,6.52-6.51,6.52a22.55,22.55,0,0,1,1.93,9C170.25,354.64,166.83,356.83,166.83,362.78Zm44.83,0c0,7.06-5.63,11.7-10.85,13-3.77,1-8.38,1.45-9.78,2.25a6.47,6.47,0,0,0-.7.64,6.45,6.45,0,0,0-.7-0.64c-1.39-.79-6-1.29-9.78-2.25l-0.43-.12,29.67-22.28C210.12,356.94,211.67,359.26,211.67,362.78Zm-2.11-23.52a25.08,25.08,0,0,0-1.3,7.83,23.66,23.66,0,0,0,.26,3.61l-31.83,23.91A13.39,13.39,0,0,1,169,363.21l36.59-27.47A12,12,0,0,0,209.55,339.25Zm-33.86-4.47a12.72,12.72,0,0,0,6.16,1.69,14.48,14.48,0,0,0,8.48-2.91,14.49,14.49,0,0,0,8.48,2.91,11.27,11.27,0,0,0,1.75-.14l-31.17,23.41c0.9-3.52,3-6.44,3-12.66a25.13,25.13,0,0,0-1.3-7.83A12.15,12.15,0,0,0,175.7,334.78Z" transform="translate(-60.01 -164.33)"/><path class="cls-7" d="M174,328.31s3.92,4,7.89,4c5.12,0,8.48-4.35,8.48-4.35v-2.72l-2.68,2.65a8.66,8.66,0,0,1-5.81,2.47,7.27,7.27,0,0,1-4.59-1.87l-4.16-3.44Z" transform="translate(-60.01 -164.33)"/><path class="cls-8" d="M216.41,362.78c0,9-6.45,15-14.57,17-4.28,1.08-7.23,1.36-9.41,2.14-0.28.26-2.09,2.22-2.09,2.22V387s2.75-3,3.14-3.38c3-.83,4.84-0.93,8.83-1.94,8.08-2.08,15.38-9.12,15.38-18.92a18.76,18.76,0,0,0-1.62-7.74l-1.43,0A19.36,19.36,0,0,1,216.41,362.78Z" transform="translate(-60.01 -164.33)"/><path class="cls-9" d="M198.82,332.34c4,0,7.89-4,7.89-4l0.87-3.23-4.16,3.44a7.27,7.27,0,0,1-4.59,1.87,8.66,8.66,0,0,1-5.81-2.47l-2.68-2.65V328S193.71,332.34,198.82,332.34Z" transform="translate(-60.01 -164.33)"/><path class="cls-10" d="M167.25,334.32L163,335.57l2.65,1.25s6.53-.57,8.3-8.5l-0.87-3.23-1.87,5.11A6.13,6.13,0,0,1,167.25,334.32Z" transform="translate(-60.01 -164.33)"/><path class="cls-11" d="M303.23,285.09H298l0.9-3.52q-2.43,0-5.09.08l-3.28,12.83h5.06l1.76-6.86h4.28c4.34,0,9.18-1.75,10.59-5.11-1.49-.22-3.11-0.43-4.86-0.59A4.54,4.54,0,0,1,303.23,285.09Z" transform="translate(-60.01 -164.33)"/><path class="cls-12" d="M217.34,284.5l-0.32-.76q-2.13-.38-4.54-0.75l1.77,3.93-1.94,7.57h5.07l1.94-7.59,2.26-2.23c-1.13-.25-2.35-0.5-3.67-0.76Z" transform="translate(-60.01 -164.33)"/><path class="cls-13" d="M194.32,281.3q-2.45-.1-5-0.14l-3.41,13.33h16.52l1.49-2.54H191.59l1.35-5.29h10l0.65-2.54h-10Z" transform="translate(-60.01 -164.33)"/><path class="cls-14" d="M180.85,294.49l1.49-2.54H171l2.67-10.42q-2.54.16-5.16,0.37l-3.22,12.58h15.59Z" transform="translate(-60.01 -164.33)"/><path class="cls-15" d="M153.49,294.49h6.21l3.08-12-5.21.56-1.89,7.4-2.73-6.93-3.65.35Z" transform="translate(-60.01 -164.33)"/><path class="cls-16" d="M138.26,294.49h5.06L146,284.15l-5.18.45Z" transform="translate(-60.01 -164.33)"/><path class="cls-17" d="M112,294.49h5.59l2.64-4.81h8.73l0.38,4.81h5.37l-1.36-9.32-4.72.31,0.17,2.19H121.3l1-1.84-4.85.22Z" transform="translate(-60.01 -164.33)"/><path class="cls-18" d="M100.13,294.49h5.06l2.09-8.18q-2.61,0-5.07,0Z" transform="translate(-60.01 -164.33)"/><path class="cls-19" d="M283.19,282.38l-1.41,5.52c-0.71,2.79-3.09,4.36-6.74,4.36-4.89,0-4.92-2.73-4.5-4.36l1-4.08-5.24.68-0.87,3.4c-1.24,4.84,1.43,6.9,8.92,6.9s11.21-2.06,12.45-6.9l1.53-6Q285.86,282.12,283.19,282.38Z" transform="translate(-60.01 -164.33)"/><path class="cls-20" d="M252.07,297a36.38,36.38,0,0,0,8-.84l-0.39-2.79a26.19,26.19,0,0,1-6.23.69c-7.84,0-10-4-10.16-7.31-2.46.14-4.6,0.22-6.46,0.26C237,292.08,241.72,297,252.07,297Z" transform="translate(-60.01 -164.33)"/><path class="cls-21" d="M81.06,285.43c3.06,1.28,5.84,2.47,5.17,5.08-0.55,2.15-3.23,3.54-6.83,3.54a22.39,22.39,0,0,1-7.83-1.36L70,295.45A24.09,24.09,0,0,0,79.27,297c5.28,0,11.86-1.59,13-6.07A4.63,4.63,0,0,0,91,286.13C87.34,285.95,84,285.71,81.06,285.43Z" transform="translate(-60.01 -164.33)"/><path class="cls-22" d="M129.17,319.48L132,308.58l-5.07,0L123.46,322H139l1.49-2.54H129.17Z" transform="translate(-60.01 -164.33)"/><path class="cls-23" d="M165.33,309.58l-4.55-.24,0.46,5.85h-7.46l3.31-6-4.17-.17-8.47,13H150l2.64-4.81h8.73l0.38,4.81h5.37Z" transform="translate(-60.01 -164.33)"/><path class="cls-24" d="M185.09,311l-4.15-.33L179.6,312l-0.66-1.56-4.36-.31,1.94,4.29L174.57,322h5.06l1.94-7.59Z" transform="translate(-60.01 -164.33)"/><path class="cls-25" d="M220.2,322h5.06l2-7.83h5.17l0.81-1q-5.17-.06-10.75-0.21Z" transform="translate(-60.01 -164.33)"/><path class="cls-26" d="M241,322h5.07l2-7.83h5.17l1-1.16q-5.17.15-11,.22Z" transform="translate(-60.01 -164.33)"/><path class="cls-27" d="M121.62,308.69l-5.1.14a3.2,3.2,0,0,1-.09.51,4.53,4.53,0,0,1-4.13,3.29H107l0.87-3.41q-2.69.16-5.15,0.33L99.58,322h5.06l1.75-6.86h4.28c4.64,0,9.85-2,10.83-5.83A4.78,4.78,0,0,0,121.62,308.69Z" transform="translate(-60.01 -164.33)"/><path class="cls-28" d="M217.33,312.86l-5.72-.23,0,0.14c-1.16,4.54-4.21,7-8.59,7s-6.15-2.5-5-7c0.08-.29.16-0.58,0.25-0.86l-5.66-.38c-0.14.42-.26,0.84-0.37,1.24-1.05,4.11-1.15,9.57,10.12,9.57S216.26,317,217.33,312.86Z" transform="translate(-60.01 -164.33)"/><path class="cls-29" d="M273.8,317.21c-0.41,1.59-2.5,2.58-5.46,2.58a19,19,0,0,1-6.25-1l-1.32,2.44a21.18,21.18,0,0,0,7.53,1.14c4.48,0,9.58-1.25,10.47-4.75,0.76-3-2-4.58-4.71-5.72q-3.44.3-7.51,0.58C269.69,314.2,274.41,314.83,273.8,317.21Z" transform="translate(-60.01 -164.33)"/><path class="cls-30" d="M209.44,330.19l-1.87-5.11-0.87,3.23c1.77,7.94,8.3,8.5,8.3,8.5l2.65-1.25-4.23-1.25A6.13,6.13,0,0,1,209.44,330.19Z" transform="translate(-60.01 -164.33)"/><path class="cls-30" d="M182.61,363.23L179.19,358l-3.79,2.85a1.37,1.37,0,0,1,1.33,1.43v9.86l2.68-2v-7l3.05,4.67,2.83-2.12V353.41l-2.68,2v7.8Z" transform="translate(-60.01 -164.33)"/><path class="cls-30" d="M193.47,351.81l-3,2.27v-4.54l-4.08,3.06A1.37,1.37,0,0,1,187.7,354v9.86l2.75-2.07v-4.49l3-2.27v4.49l2.62-2V345.3l-2.62,2v4.54Z" transform="translate(-60.01 -164.33)"/><path class="cls-30" d="M201.13,350.67v-9.15L197,344.59a1.37,1.37,0,0,1,1.33,1.43v9.86l7.6-5.71a15.54,15.54,0,0,1,0-3.13Z" transform="translate(-60.01 -164.33)"/><polygon class="cls-31" points="130.33 270.95 130.33 266.84 78.94 244.26 130.33 270.95"/><path class="cls-32" d="M304.88,268.34H273.94a32.83,32.83,0,0,0-15.82-4c-6.88,0-12.62,1.42-17.14,4h-4.13a6.41,6.41,0,0,0-1.55-3.35c-1.71-6.36-8.78-8.77-11.9-9.52a9.07,9.07,0,0,0-2.77-4,4.89,4.89,0,0,0-.5-3V241.2a7.64,7.64,0,0,0-3.17-5.74,10.5,10.5,0,0,0,.24-2.31v-8.56c0-2.29-1.79-4.24-3.09-5.35l0-4.66-0.71-2.77c0.23-3.88-3.87-6.17-3.87-6.17,7.38-3.79,14.36-11,14.51-27.85a6,6,0,0,0,.45-2.24v-2c0-2.29,0-9.24-34.12-9.24s-34.12,7-34.12,9.24v2a6,6,0,0,0,.45,2.24c0.15,16.87,7.13,24.06,14.51,27.85,0,0-4.1,2.29-3.87,6.17l-0.71,2.77,0,4.66c-1.3,1.11-3.09,3.06-3.09,5.35v8.56a10.53,10.53,0,0,0,.25,2.31,7.64,7.64,0,0,0-3.17,5.74v7.26a4.88,4.88,0,0,0-.5,3,9.07,9.07,0,0,0-2.77,4c-3.13.74-10.19,3.16-11.91,9.52a6.41,6.41,0,0,0-1.55,3.35H102.77a28.91,28.91,0,0,0-15.28-4c-12.36,0-19.07,5.82-20.58,11.72a12.64,12.64,0,0,0,.64,8.33L60,298s5,6.65,19,6.65a30.06,30.06,0,0,0,12.32-2.5H93.7s2.33,3.32,1.87,5.13l-6.05,23.41h15.75l11.18,60.21c1.6,8.62,9.16,19.08,16.84,23.32l57,31.41,57-31.41c7.68-4.23,15.24-14.69,16.84-23.32l11.37-61.24c5.28-1.89,9.36-5.65,10.59-10.45a10.31,10.31,0,0,0-1.09-8.3l4.46-8.77h11.87l1.77-6.94s13.81-.77,16.63-11.78C322.19,274.26,314.37,268.34,304.88,268.34Zm12.6,14.45c-1.69,6.59-9.19,10-16.18,10l-1.76,6.86H288.07l-5.83,11.44a8.1,8.1,0,0,1,1.57,7.47c-1.13,4.42-5.22,7.74-10.36,9.17l-11.64,62.68c-1.48,8-8.51,17.7-15.61,21.61L190.34,442.8,134.48,412c-7.11-3.91-14.13-13.64-15.61-21.61l-11.56-62.22H92.69l5.26-20.35c0.7-2.7-1.46-6.17-3-8.2H90.74A27.28,27.28,0,0,1,79,302.16c-11.14,0-15.89-4.64-15.89-4.64l6.52-11.69A29.05,29.05,0,0,0,74.26,288s-7-3.41-5-11.34c0.86-3.35,5.23-9.88,18.2-9.88,9.26,0,14.52,4,14.52,4h44.54a4,4,0,0,1,.95-4.46c1.19-7.2,11.67-8.75,11.67-8.75a6.6,6.6,0,0,1,3.85-5.1,2.91,2.91,0,0,1,0-3.5v-7.8c0-2.86,3.71-4.81,3.71-4.81s-0.78-.75-0.78-3.24v-8.56c0-2,3.08-4.14,3.08-4.14l0-5.55,0.73-2.84c-0.58-4.12,7-6.34,7-6.34l-0.4-.46c-7.29-2.7-17.3-8.07-17.3-28a3.87,3.87,0,0,1-.43-1.7v-2c0-4.67,14.13-6.78,31.66-6.78S222,168.9,222,173.58v2a3.88,3.88,0,0,1-.43,1.7c0,19.93-10,25.3-17.3,28l-0.41.46s7.6,2.22,7,6.34l0.73,2.84,0,5.55s3.08,2.14,3.08,4.14v8.56c0,2.49-.78,3.24-0.78,3.24s3.7,1.94,3.7,4.81V249a2.91,2.91,0,0,1,0,3.5,6.61,6.61,0,0,1,3.85,5.1s10.48,1.55,11.67,8.75a4,4,0,0,1,.95,4.46h7.51c4.17-2.5,9.65-4,16.48-4a28.73,28.73,0,0,1,15.07,4h31.69C313.46,270.8,319.24,275.88,317.47,282.79Z" transform="translate(-60.01 -164.33)"/><polygon class="cls-32" points="130.33 270.95 181.72 244.26 130.33 266.84 130.33 270.95"/><path class="cls-32" d="M182.7,383.51c-18.59-.81-34.29-4.5-39.37-9.37,3.29,6,21.7,10.59,44.08,11l-0.65-.71C185,384,183.88,383.74,182.7,383.51Z" transform="translate(-60.01 -164.33)"/><path class="cls-32" d="M193.93,384.39l-0.65.71c22.38-.37,40.79-5,44.08-11-5.08,4.87-20.78,8.56-39.37,9.37C196.79,383.74,195.64,384,193.93,384.39Z" transform="translate(-60.01 -164.33)"/><path class="cls-32" d="M170.45,329.9l0.62-1.69H156.13a100.72,100.72,0,0,0,14.17,2C170.35,330.13,170.4,330,170.45,329.9Z" transform="translate(-60.01 -164.33)"/><path class="cls-32" d="M231.54,328.21h-2.27c-3.34,1.3-9.3,2.48-18.46,2.94a5.51,5.51,0,0,0,1.12,1.4C223.58,331.5,229.13,329.68,231.54,328.21Z" transform="translate(-60.01 -164.33)"/><path class="cls-32" d="M169.87,331.14c-9.16-.46-15.12-1.63-18.46-2.94h-2.27c2.41,1.47,8,3.3,19.61,4.33A5.55,5.55,0,0,0,169.87,331.14Z" transform="translate(-60.01 -164.33)"/><path class="cls-32" d="M210.23,329.9c0,0.12.1,0.23,0.14,0.35a100.7,100.7,0,0,0,14.17-2H209.62Z" transform="translate(-60.01 -164.33)"/><path class="cls-32" d="M165.17,350.76a16.25,16.25,0,0,0,.4-3.66A17.54,17.54,0,0,0,164,340l-2.19-5,5.05-1.49A75.32,75.32,0,0,1,152.77,331l-0.14,15.89a14.79,14.79,0,0,1-3-1.74l0.13-15.3a6.52,6.52,0,0,1-1.78-1.07l-0.13,14.54C147.79,344.74,150.57,348.61,165.17,350.76Z" transform="translate(-60.01 -164.33)"/><path class="cls-32" d="M218.82,335l-2.19,5a17.53,17.53,0,0,0-1.52,7.1,16.22,16.22,0,0,0,.4,3.66c14.6-2.15,17.38-6,17.36-7.49l-0.13-14.54s-3,3.13-19,4.81Z" transform="translate(-60.01 -164.33)"/><path class="cls-32" d="M164.24,353.68c0.19-.48.37-1,0.53-1.47C148.39,349.65,147,345,147,345v1.55S148.36,351.1,164.24,353.68Z" transform="translate(-60.01 -164.33)"/><path class="cls-32" d="M215.91,352.21c0.16,0.51.34,1,.53,1.47,15.89-2.58,17.23-7.16,17.23-7.16V345S232.29,349.65,215.91,352.21Z" transform="translate(-60.01 -164.33)"/><path class="cls-32" d="M232.83,349.47s-2.46,3.48-15.81,5.7a19.61,19.61,0,0,1-1.24,17.55c15.45-2.57,19.84-7.31,17.25-9.89Z" transform="translate(-60.01 -164.33)"/><path class="cls-32" d="M164.9,372.73a19.61,19.61,0,0,1-1.24-17.55,53.86,53.86,0,0,1-11-2.83l-0.19,12.83a4.23,4.23,0,0,0,1.46,3.18s-4.54-1.09-4.5-4.28l0.2-13.2a6.28,6.28,0,0,1-1.77-1.4l-0.2,13.36C145.06,365.42,149.45,370.16,164.9,372.73Z" transform="translate(-60.01 -164.33)"/><path class="cls-32" d="M154.74,373.8c-6.92-2.18-11.09-5-11.09-8.13a4.38,4.38,0,0,1,1.31-2.93,4.45,4.45,0,0,0-1.93,3.31C143,369,147.45,371.74,154.74,373.8Z" transform="translate(-60.01 -164.33)"/><path class="cls-32" d="M237.65,366.05a4.46,4.46,0,0,0-1.93-3.31,4.38,4.38,0,0,1,1.31,2.93c0,3.1-4.18,5.95-11.09,8.13C233.23,371.74,237.65,369,237.65,366.05Z" transform="translate(-60.01 -164.33)"/><path class="cls-32" d="M180.32,211.78v1.54c0.79-.06,1.65-0.11,2.59-0.16v-1.54C182,211.67,181.11,211.72,180.32,211.78Z" transform="translate(-60.01 -164.33)"/><path class="cls-32" d="M199.4,212.33v-0.62c-2.37-.15-5.34-0.25-9.06-0.25-1.91,0-3.63,0-5.17.07v1.54c1.55,0,3.26-.08,5.17-0.08,3.68,0,6.66.1,9.06,0.26v-0.92Z" transform="translate(-60.01 -164.33)"/><path class="cls-32" d="M177.68,217.07l0,3.31c1.38-.09,3.05-0.16,5.07-0.22V214.9a1.46,1.46,0,0,1,.3-0.85q-1.66.08-3.07,0.18C179.41,214.51,177.69,215.47,177.68,217.07Z" transform="translate(-60.01 -164.33)"/><path class="cls-32" d="M185.39,214a1.4,1.4,0,0,0-.21.72v5.42c1.55,0,3.26,0,5.16,0,3.67,0,6.65.06,9.06,0.14v-6.06c-2.5-.15-5.5-0.25-9.06-0.25C188.55,213.9,186.9,213.93,185.39,214Z" transform="translate(-60.01 -164.33)"/><path class="cls-32" d="M182.81,221.19c-1.85,0-3.41.1-4.72,0.16a5.38,5.38,0,0,0-3.22,2.8c1.85-.1,4.15-0.2,7-0.26A9.52,9.52,0,0,1,182.81,221.19Z" transform="translate(-60.01 -164.33)"/><path class="cls-32" d="M199.65,221.23c-2.46-.07-5.52-0.12-9.31-0.12-2,0-3.73,0-5.31,0a9.7,9.7,0,0,0-1,2.69c1.88,0,4,0,6.28,0,5,0,9,.08,12.08.2C202,222.45,200.31,221.53,199.65,221.23Z" transform="translate(-60.01 -164.33)"/><path class="cls-32" d="M181.82,224.65c-2.93.06-5.31,0.15-7.21,0.24v7.94c1.84-.08,4.2-0.16,7.21-0.21v-8Z" transform="translate(-60.01 -164.33)"/><path class="cls-32" d="M184,224.61v8c1.88,0,4,0,6.31,0,5.18,0,9.17.06,12.23,0.15v-8c-3.16-.1-7.19-0.18-12.23-0.18C188,224.57,185.93,224.58,184,224.61Z" transform="translate(-60.01 -164.33)"/><path class="cls-32" d="M182.13,234.14c-2.68.09-5.12,0.21-7.16,0.32,2.59,3.72-1.41,3.89-1.57,7.25,2.11-.05,4.63-0.1,7.54-0.13C180.7,237.61,183.84,237.41,182.13,234.14Z" transform="translate(-60.01 -164.33)"/><path class="cls-32" d="M202.47,234.29c-3.54-.16-7.77-0.3-12.13-0.3-2.07,0-4.11,0-6.06.08,1.79,3.32-1.38,3.51-1.15,7.48q3.32,0,7.21,0c5.25,0,9.72,0,13.37.11C203.56,237.31,198.64,237,202.47,234.29Z" transform="translate(-60.01 -164.33)"/><path class="cls-32" d="M180.91,242.78l-7.53,0v7.09l7.53-.07v-7.06Z" transform="translate(-60.01 -164.33)"/><path class="cls-32" d="M203.69,249.88V242.8c-3.87,0-8.46,0-13.35,0h-7.18v7.06l7.18,0C195.45,249.81,200,249.84,203.69,249.88Z" transform="translate(-60.01 -164.33)"/><path class="cls-32" d="M179.74,258.7c-0.44-4.14,3.25-3.94,1.39-7.33l-5.75.05c2.88,2.75-3,4.14-2,7.17C175.21,258.64,177.33,258.67,179.74,258.7Z" transform="translate(-60.01 -164.33)"/><path class="cls-32" d="M183.42,251.36c1.89,3.4-1.84,3.2-1.38,7.36,2.49,0,5.24,0,8.29,0,7.36,0,13-.07,17.26-0.16,1.08-3.78-5-3.36-1.62-7.16-3.76-.05-8.89-0.09-15.64-0.09Z" transform="translate(-60.01 -164.33)"/><path class="cls-32" d="M231.64,270.2a2,2,0,0,0,.3-1.43c-17.1,1.53-41.62,1.25-41.62,1.25,25.1-1.29,27.93-.91,27.93-3.07,0-3.59-8.53-5.84-12.09-6.62-4,.07-9.13.11-15.83,0.11l-8.08,0c-1.06.87-3.52,3.47-3.25,8.81q3.61,0,7.75,0a248.25,248.25,0,0,1-27.83.28,1,1,0,0,0-.12,1.25h66.65C230,270.48,231.64,270.2,231.64,270.2Z" transform="translate(-60.01 -164.33)"/><path class="cls-32" d="M179.35,260.4c-3,0-5.58-.07-7.68-0.12-1.81.27-10.47,1.93-10.65,8.38,3.84,0.22,8.78.41,15.05,0.52C175.81,263.83,178.31,261.24,179.35,260.4Z" transform="translate(-60.01 -164.33)"/><path class="cls-32" d="M190.34,204.73c-1.22,0-2.41,0-3.52.11a5.24,5.24,0,0,1-.16,2.76H186.4a1.34,1.34,0,0,0-1.83.12h-0.08a5,5,0,0,0,.39-2.75l-1.27.12a3,3,0,0,1-.5,2.44,1.72,1.72,0,0,0-1.44.51l-0.5.06a2,2,0,0,0-.43,1.63l0.44,0a1.11,1.11,0,0,0,.72.88l-1.57.12v0.38q1.19-.11,2.59-0.19v-0.36a1.14,1.14,0,0,0,.6-1l0.5,0a1.26,1.26,0,0,0,.73.89,1.52,1.52,0,0,0,.43.11v0.25c1.56-.06,3.27-0.1,5.17-0.1,3.65,0,6.64.13,9.06,0.32v-0.37l-0.61,0a1.11,1.11,0,0,0,.72-0.88l0.44,0a1,1,0,0,0,.42,1,1.1,1.1,0,0,0,1.13.11,1,1,0,0,0,.49-0.42,1.84,1.84,0,0,0-2.11-2.46,0.83,0.83,0,0,0-.38.17l-0.52-.07a1.65,1.65,0,0,0-1.54-.48,3.38,3.38,0,0,1-.61-2.49C195.09,204.9,192.77,204.73,190.34,204.73Zm-8.67,3.64c0,1.85,1.08,1.67,1.29,1.65C182.37,211,180.63,210.23,181.67,208.37Zm0.76,1c-0.65-.15-0.42-2.07.68-1.49C182.83,208.3,183.07,209.54,182.43,209.39ZM201,208.23c0.51,0,1.45,1.63.62,1.84S200.55,208.2,201,208.23Zm-0.5.45c0.12,1.79.94,1.66,1.26,1.56C201.39,211.13,199.69,210.58,200.54,208.68Zm-5-1.08c0.63,0,1.47,2,.56,2S194.77,207.58,195.51,207.6Zm-3.4-.23c1,0,1.6,2,.69,2S191.59,207.38,192.11,207.38Zm-6.34.41c-0.26.5,0.46,1.63-.28,1.66C184.53,209.49,184.64,206.95,185.77,207.79Zm-1.31.4c0.12,1.84,1.2,1.72,1.4,1.68C185.43,210.77,183.59,210.14,184.45,208.19Zm1.43,2.21a1.21,1.21,0,0,0,.63-1h0.65a1.35,1.35,0,0,0,.72.92Zm1.81-2.23c0.12,1.9,1.23,1.77,1.45,1.73C188.7,210.84,186.8,210.18,187.7,208.17Zm1.19,1.17c-1.11.33-1.44-2.6,0-1.83C188.71,208,189.72,209.09,188.89,209.34Zm0.43,1a1.21,1.21,0,0,0,.55-0.94h0.94a1.21,1.21,0,0,0,.55.94h-2Zm2.29-2.26c0.12,1.9,1.13,1.7,1.34,1.66C192.51,210.66,190.71,210.08,191.6,208.07Zm1.19,2.28a1.36,1.36,0,0,0,.72-0.92h0.65a1.21,1.21,0,0,0,.63,1Zm2.07-2.23c0.13,1.9,1.13,1.7,1.34,1.66C195.76,210.71,194,210.13,194.86,208.11Zm3.46-.26c0.61-.08,1.4,1.85.55,1.81S197.71,207.93,198.32,207.86Zm-0.48.56c0.11,1.79,1.06,1.6,1.26,1.56C198.69,210.85,197,210.3,197.84,208.41Zm-0.67,1.15a1.14,1.14,0,0,0,.6,1l-1.83-.11a1.26,1.26,0,0,0,.73-0.89Z" transform="translate(-60.01 -164.33)"/><path class="cls-32" d="M184.28,201.77c-0.55.06-1.07,0.12-1.54,0.19v0.6q0.7-.1,1.54-0.19v-0.6Z" transform="translate(-60.01 -164.33)"/><path class="cls-32" d="M186.27,202.2c1.19-.08,2.54-0.12,4.07-0.12a58.06,58.06,0,0,1,6.11.29v-0.6a59.66,59.66,0,0,0-6.11-.28c-1.48,0-2.84,0-4.07.12v0.59Z" transform="translate(-60.01 -164.33)"/><path class="cls-32" d="M188.28,169.26a137.76,137.76,0,0,0-15.66.91l0.13,1.46a137.89,137.89,0,0,1,15.3-.89C188.11,170.25,188.19,169.75,188.28,169.26Z" transform="translate(-60.01 -164.33)"/><path class="cls-32" d="M210.43,172q0-.7,0-1.49c-1.32-.21-2.81-0.4-4.48-0.57,0.08,0.5.13,1,.18,1.5C207.71,171.59,209.15,171.78,210.43,172Z" transform="translate(-60.01 -164.33)"/><path class="cls-32" d="M218,172.47a19.44,19.44,0,0,0-3.15-1.07c0,0.48,0,1,0,1.47a19.72,19.72,0,0,1,3.17,1.07Q218,173.21,218,172.47Z" transform="translate(-60.01 -164.33)"/><path class="cls-32" d="M217.81,177.18c0.05-.77.1-1.56,0.13-2.37a20.14,20.14,0,0,0-3.19-1.07c-0.05.93-.11,1.74-0.15,2.19h0.16A4.32,4.32,0,0,1,217.81,177.18Z" transform="translate(-60.01 -164.33)"/><path class="cls-32" d="M206.25,174.88a9,9,0,0,1,4.18,1.79c0-.59,0-1.9,0-3.79-1.26-.2-2.68-0.39-4.28-0.55C206.23,173.18,206.25,174,206.25,174.88Z" transform="translate(-60.01 -164.33)"/><path class="cls-32" d="M182.39,177.18a11.62,11.62,0,0,1,5.39-2.48c0-1,.06-2,0.17-3.07a137.57,137.57,0,0,0-15.13.88l0.24,2.69a9.84,9.84,0,0,1,3-.44A8.82,8.82,0,0,1,182.39,177.18Z" transform="translate(-60.01 -164.33)"/><path class="cls-32" d="M213.71,188.92c0.61,0,.54-2,1.64-2s0.76,1.89.76,1.89a74.12,74.12,0,0,0,1.61-10.67,3.81,3.81,0,0,0-3-1.51,3.56,3.56,0,0,0-.83.1c0,6.25-1.24,9.48-1.72,10.53h0.18C213.8,187.25,213,188.92,213.71,188.92Z" transform="translate(-60.01 -164.33)"/><path class="cls-32" d="M207.19,183c2.21,0-.18,3.55,1.06,4.07A25.57,25.57,0,0,0,210,177.2a8.34,8.34,0,0,0-3.71-1.61,51.44,51.44,0,0,1-.91,8.37h0.15C206.44,184,206.09,183,207.19,183Z" transform="translate(-60.01 -164.33)"/><path class="cls-32" d="M178.54,183.54c1.94,0,.31,3,2.56,3,1.26,0,.79-1.26,2.36-1.26,2.2,0,1.27,2.53,2.71,2.53,1.16,0,.64-1.65,2.19-1.65a1.26,1.26,0,0,1,1.15.63,42.1,42.1,0,0,1-1.74-11.42,10.27,10.27,0,0,0-5.44,2.78,7.77,7.77,0,0,0-6.32-2.74,9,9,0,0,0-2.9.46l0.54,6.12a1,1,0,0,1,.7-0.23c1.93,0,.37,2.74,2.45,2.74C177.71,184.57,177.51,183.54,178.54,183.54Z" transform="translate(-60.01 -164.33)"/><path class="cls-33" d="M177,213.27a33,33,0,0,0-3.4.58v-1.1a3.34,3.34,0,0,0-1.74.78v1.25s1.6-.94,8.42-1.46v-1.54c-1.28.1-2.36,0.21-3.28,0.33v1.16Z" transform="translate(-60.01 -164.33)"/><path class="cls-33" d="M202.9,213.56c4.69,0.52,5.88,1.22,5.88,1.22v-1.25s-0.58-.9-5.88-1.51v1.54Z" transform="translate(-60.01 -164.33)"/><path class="cls-33" d="M175.73,215.51l0,4.18c-1.1.09-1.93,0.19-2.55,0.28l0-4.78c-1.13.29-1.67,0.6-1.67,0.86l0,5.1s1.15-.44,6.19-0.75l0-3.31c0-1.61,1.72-2.57,2.27-2.83-1.39.11-2.59,0.23-3.62,0.37A1.1,1.1,0,0,0,175.73,215.51Z" transform="translate(-60.01 -164.33)"/><path class="cls-33" d="M209.17,216c0-.49-2-1.15-6.28-1.6v5.94c5.14,0.32,6.3.76,6.3,0.76Z" transform="translate(-60.01 -164.33)"/><path class="cls-33" d="M173.71,223.39c-1.12.07-2,.15-2.79,0.22a26.6,26.6,0,0,1,2.41-1.92,13.87,13.87,0,0,0-1.94.29,9.55,9.55,0,0,0-3.35,2.84,47.72,47.72,0,0,1,6.82-.67,5.38,5.38,0,0,1,3.22-2.8l-2.15.12A22.61,22.61,0,0,0,173.71,223.39Z" transform="translate(-60.01 -164.33)"/><path class="cls-33" d="M206.22,224.17a45.46,45.46,0,0,1,6.41.65,9.53,9.53,0,0,0-3.35-2.84,34.47,34.47,0,0,0-6-.6A5.53,5.53,0,0,1,206.22,224.17Z" transform="translate(-60.01 -164.33)"/><path class="cls-33" d="M168.41,225.35v8a40.6,40.6,0,0,1,6.2-.52v-7.94l-1.87.1v7.1l-2.71.23v-7.14C168.91,225.28,168.41,225.35,168.41,225.35Z" transform="translate(-60.01 -164.33)"/><path class="cls-33" d="M212.27,233.35v-8s-1.75-.23-6-0.44v7.94A39.31,39.31,0,0,1,212.27,233.35Z" transform="translate(-60.01 -164.33)"/><path class="cls-33" d="M165.48,242s2.74-.14,7.92-0.26c0.16-3.36,4.16-3.53,1.57-7.25l-1.74.1c2.12,4.54-2,4.19-2.68,6.37l-3.31.09c0.47-2.68,5.56-2.37,3.52-6.3l-1.73.13C171.49,239,165.48,237.7,165.48,242Z" transform="translate(-60.01 -164.33)"/><path class="cls-33" d="M215.2,242c0-4.27-6-3-3.56-7.12,0,0-2.18-.18-5.6-0.38-3.86,2.91,1.64,3,1.79,7.24C212.65,241.84,215.2,242,215.2,242Z" transform="translate(-60.01 -164.33)"/><path class="cls-33" d="M165.48,242.89V250s2.88-.07,7.9-0.13v-7.09l-3.11,0v6.23l-3.23.06v-6.25Z" transform="translate(-60.01 -164.33)"/><path class="cls-33" d="M215.2,242.89l-7.39-.07v7.09c4.7,0.06,7.39.12,7.39,0.12v-7.15Z" transform="translate(-60.01 -164.33)"/><path class="cls-33" d="M175.38,251.43l-4.27.07c1.68,4.36-4.73,2.56-4.73,6.14-1.41-.06-2.46-0.11-3.23-0.16,0-3.42,6.26-1.87,4.81-5.91l-1.79.06c1.65,4.23-4.88,1.55-4.69,6.5,0,0,3,.29,11.86.48C172.4,255.56,178.27,254.18,175.38,251.43Z" transform="translate(-60.01 -164.33)"/><path class="cls-33" d="M211.65,258.48c5.56-.17,7.55-0.37,7.55-0.37,0.19-4.95-6.34-2.26-4.69-6.5,0,0-1.56-.07-5.15-0.13C205.8,254.25,212.27,254.5,211.65,258.48Z" transform="translate(-60.01 -164.33)"/><path class="cls-33" d="M149.7,267.64a109.84,109.84,0,0,0,11.32,1c0.18-6.44,8.84-8.1,10.65-8.38-9.4-.21-10.35-0.55-10.35-0.55S150.41,260.6,149.7,267.64Zm4.22-.19c-2.17-.23-3.1-0.4-3.1-0.4s0.42-5.17,11.21-6.49C154.35,263.06,153.92,267.45,153.92,267.45Z" transform="translate(-60.01 -164.33)"/><path class="cls-33" d="M219.36,259.74s-0.82.29-8.52,0.5c4.55,0.69,13.7,2.73,12.9,8,0,0,3.85-.31,7.24-0.62C230.27,260.6,219.36,259.74,219.36,259.74Z" transform="translate(-60.01 -164.33)"/><path class="cls-33" d="M148.75,268.71a2,2,0,0,0,.29,1.49s1.63,0.28,6.18.6h3.59a1,1,0,0,1,.12-1.25C152.37,269.22,148.75,268.71,148.75,268.71Z" transform="translate(-60.01 -164.33)"/><path class="cls-33" d="M198.47,202.64a14.18,14.18,0,0,1,3.69,1c0-.58-1.3-1.15-3.69-1.56v0.59Z" transform="translate(-60.01 -164.33)"/><path class="cls-33" d="M202.9,211.36a29.38,29.38,0,0,1,4.93.92l0.31-.27a20.78,20.78,0,0,0-2.53-.62,0.67,0.67,0,0,0,.63-0.54l0.24,0.05a0.54,0.54,0,1,0,1.07,0c-0.06.65,0.59,0.8,0.71,0.23l0.18,0.07c0-3.83-9.84-2.74-7.18-6.58a46.7,46.7,0,0,0-10.94-1.06,46.47,46.47,0,0,0-10.92,1.06c2.66,3.85-7.18,2.75-7.18,6.58l0.18-.07c0.12,0.58.76,0.42,0.71-.23,0,0.81,1.1,1,1.1-.28l0.12,0a0.84,0.84,0,0,0,.71.79,20.8,20.8,0,0,0-2.51.62l0.31,0.27a37.65,37.65,0,0,1,7.47-1.19v-0.38a1,1,0,0,0,.42-1,2,2,0,0,1,.43-1.63,1.23,1.23,0,0,0-1-.18,2.54,2.54,0,0,0,.76-2.49s0.54-.09,1.45-0.2a3.67,3.67,0,0,1-.66,2.8,1.72,1.72,0,0,1,1.44-.51,3,3,0,0,0,.5-2.44l1.27-.12,1.95-.14c1.11-.07,2.3-0.11,3.52-0.11,2.43,0,4.75.17,6.49,0.35,0.81,0.08,1.5.17,2,.23a3.08,3.08,0,0,0,1,2.63,1.84,1.84,0,0,1,2.11,2.46,0.32,0.32,0,0,1,.55,0,0.72,0.72,0,0,0,.36.53v0.38Zm4.78-.5a0.31,0.31,0,0,0,.48.19C208.12,211.46,207.66,211.37,207.68,210.86Zm-0.12-1.08c0.25-.05.91,0.85,0.53,1.13S207.46,209.88,207.56,209.78Zm-1,.58c0.34,1,.73.67,0.88,0.41C207.44,211.72,206.56,211.48,206.56,210.37Zm0-1.05c0.3,0,1.09,1.19.69,1.4S206.3,209.27,206.6,209.31Zm-32.81,0c-0.58,1.23-.11,1.23,0,1C173.68,212.22,172.44,211,173.79,209.33Zm-0.08.75a0.7,0.7,0,0,1,.62-0.92C174.07,209.43,174,210.21,173.7,210.08Zm4.41-1.66c-0.32.36-.38,1.36-0.8,1.21S177.17,208.26,178.11,208.42Zm-2,.3c-0.42.39-.46,1.31-0.85,1.09S175.14,208.71,176.1,208.71Zm-1.14.41c-0.36,1.41.3,1.26,0.65,1.06C175.38,211.84,173.35,211.09,175,209.12Zm0.36,2.22a1.42,1.42,0,0,0,.7-1.05l0.13,0a0.93,0.93,0,0,0,.71.83Zm1.65-2.67c-0.48,2,.53,1.6.82,1.47C177.49,211.81,175.14,210.7,177,208.68Zm0.82,2.3a0.91,0.91,0,0,0,.4-1l0.37,0a1,1,0,0,0,.63.86Zm1.27-2.39c-0.17,1.81,1,1.47,1.16,1.45C179.72,211.32,177.9,210.48,179.06,208.59Zm1.47-.41c-0.38.41-.23,1.5-0.73,1.35C179.13,209.33,179.37,208,180.52,208.18Zm24.6,0.72c0.38,0,1.43,1.34.85,1.64S204.86,208.94,205.12,208.9Zm-0.23.52c0.4,1.68,1,1.36,1.27,1.18C206,211.46,204.7,211.27,204.89,209.42Zm-0.05,1.39a1,1,0,0,0,.53.54l-1.54-.24a1.11,1.11,0,0,0,.56-0.39A0.3,0.3,0,0,1,204.84,210.8Zm-1.47-2.27c0.51,0,1.46,1.54.63,1.74S202.94,208.52,203.37,208.54Zm-0.39.41c0.13,2,1,1.69,1.26,1.56C203.83,211.39,202.14,210.84,203,208.95Z" transform="translate(-60.01 -164.33)"/><path class="cls-33" d="M178.52,203.61a15.3,15.3,0,0,1,4.22-1V202l-0.91.15v0.33l-1.73.37v-0.28C179.06,202.86,178.52,203.23,178.52,203.61Z" transform="translate(-60.01 -164.33)"/><path class="cls-33" d="M163.09,173.77L163,172.34a3.6,3.6,0,0,0-1.83,1.23v1.48A3.82,3.82,0,0,1,163.09,173.77Z" transform="translate(-60.01 -164.33)"/><path class="cls-33" d="M170.86,171.89l-0.12-1.46c-1.9.29-3.47,0.61-4.74,0.93l0.12,1.45C167.4,172.49,169,172.17,170.86,171.89Z" transform="translate(-60.01 -164.33)"/><path class="cls-33" d="M161.57,176.67c0,0.75,0,1.48,0,2.18a5,5,0,0,1,4.31-2.93,4.76,4.76,0,0,1,3.43,1.56,8.62,8.62,0,0,1,1.87-1.47l-0.28-3.25c-1.9.28-3.46,0.59-4.75,0.91l0.15,1.78a4.17,4.17,0,0,0-3,.85l-0.15-1.69-0.56.24A1.59,1.59,0,0,0,161.57,176.67Z" transform="translate(-60.01 -164.33)"/><path class="cls-33" d="M169.34,178.6a4.38,4.38,0,0,0-3.42-2h-0.05c0.53,8.46,1.31,11.52,1.31,11.52a0.59,0.59,0,0,0-.45.28,1,1,0,0,0-.72-0.77c-1.15,0-.27,1.56-0.27,3.26,0,0-2.27-4.57-2.34-13.25a7.24,7.24,0,0,0-1.7,2.72c1.17,17.33,10.5,20.6,16.15,22.76a3.22,3.22,0,0,1,1.67-1c-1.56-6.69,4.06-5.52,5.66-13.83-0.47,8.7-5,7.75-4,13.38l0.91-.18c1.65-7.16,5.8-7.09,7.61-13-0.66,5.76-4.46,6.87-5.5,12.68l0.74-.07c1.55-6,8-7.47,10-14.09-0.61,6.59-6.28,7.92-8.36,14l0.71,0c3.07-7.31,12.41-7.71,12.84-15.65,1.41,7.85-9.24,10.07-11,15.6h1.06c3.94-7.15,11-4.29,14.25-15.93-1.17,10.92-8.84,10-12,16l0.91,0c4.3-6.11,10.91-3.89,14.24-14.34-0.95,10.44-8.78,9.24-12.38,14.44l0.85,0.07c6.53-6.25,10-3.77,14.29-12-2.31,8.17-8.16,7.31-12.82,12.17l0.72,0.1c5.29-5,10.57-3.65,15.18-11.21-3.1,7.56-10.41,7.81-14.09,11.41l0.83,0.19c7.19-5.07,12-5.38,15.43-11.12-2.73,6.11-9.94,7.66-14.64,11.35l0.62,0.22c5.92-4,10.85-4.15,15.49-12.14-2.9,8.29-11.81,10.14-14.53,12.62a1.5,1.5,0,0,1,.44.39c5.65-2.16,15-5.43,16.15-22.76a7.78,7.78,0,0,0-1.26-2.25,74.12,74.12,0,0,1-1.61,10.67s0.47-1.89-.76-1.89-1,2-1.64,2,0.09-1.67-1.32-1.67h-0.18c-0.88.13-.67,1.28-1.12,1.28-0.77,0,.44-2-1.25-2-0.85,0-.73.57-1.24,0.57a0.91,0.91,0,0,1-.35-0.06c-1.24-.51,1.16-4.07-1.06-4.07-1.1,0-.75,1-1.71,1h-0.15c-1.46-.17-0.21-2.83-2.08-2.83s-0.7,3.39-2.34,3.39c-1.24,0-.83-1.3-2.14-1.3-2.08,0-1,3.83-2.76,3.83-1.22,0-.75-1.59-2.26-1.59-2.09,0-.76,2.52-2.53,2.52a1.81,1.81,0,0,1-1.71-1.15,1.26,1.26,0,0,0-1.15-.63c-1.55,0-1,1.65-2.19,1.65-1.44,0-.51-2.53-2.71-2.53-1.58,0-1.11,1.26-2.36,1.26-2.25,0-.62-3-2.56-3-1,0-.84,1-1.72,1-2.08,0-.52-2.74-2.45-2.74a1,1,0,0,0-.7.23c-0.75.64-.2,2.44-1,2.44-0.58,0-.82-1-0.89-1.85l-0.5-5.83A7.12,7.12,0,0,0,169.34,178.6Zm-3.27,9.46c0.71,0,.6,3.51.6,3.51C166.55,189.36,165.12,188.06,166.07,188.06Zm-1.47,2.33c1.35,1.35.93,3.39,2.14,5.18C164.93,193.85,165.26,191.58,164.6,190.4ZM214.75,188a0.54,0.54,0,1,1,1.08.09,12.58,12.58,0,0,1-3.73,5.45S214.47,190.81,214.75,188Zm-3,.2c0.18-.89,1.44-0.25,1.22.34a13.19,13.19,0,0,1-5.57,6.51A11.85,11.85,0,0,0,211.77,188.25Zm-2.54-.64a0.58,0.58,0,1,1,1.13.19c-2.32,4.92-5.54,6.58-5.54,6.58S208.44,191.27,209.23,187.61Zm-2.75-3.46c0.07-1,1.45-.73,1.28,0-1.79,7.86-7.14,10.29-7.14,10.29S205.92,190.53,206.48,184.15Zm-4-1.48c0-1.38,1.6-1.33,1.6-.23,0,3.3-3.45,10.1-7.37,11.58A14.41,14.41,0,0,0,202.47,182.67Zm-4.45,2a0.8,0.8,0,1,1,1.6,0c0,5.16-4.6,7.28-8.34,10.16C195.14,190.79,198,190.09,198,184.71Zm-5.16,2.3c0.17-1.43,1.47-.84,1.32-0.23-1.66,6.12-4.13,4.39-6.48,8.35C190.21,189.82,192.29,191.77,192.85,187Zm-5.42.77a0.91,0.91,0,1,1,1.82-.06c0,2.73-2.79,3.81-5.86,8.86C185.58,192.19,187.43,190.89,187.43,187.78Zm-19.25-1.13c1,0,.88,3,0.75,5.45,0-3.74-1.36-4.3-1.36-4.84A0.62,0.62,0,0,1,168.18,186.66Zm-1.23,2.58c0.71,2.52.08,6.7,3,9.66C166,195.86,167.3,192.3,166.95,189.24Zm3.06-2c1.47,7.1-2.19,7.19,2,12.58C166.37,196.3,170.52,192,170,187.24Zm13.46-1.32a1,1,0,0,1,1,1c0,0.63-.59.82-0.7,1.5a17.77,17.77,0,0,1-3.1,6.87C183.35,189.43,181.43,185.92,183.47,185.92Zm-5.64-1.21a0.69,0.69,0,0,1,.71-0.71c1.59,0,.37,7.48-1.2,9.87C179.22,186.28,177.83,185.2,177.83,184.71Zm2.25,2.34c1.15,9.86-3.82,8.88-1.92,14.93C173.41,197.24,180.63,194.62,180.08,187.06Zm-3.69,14.64c-5.07-3.35-.72-9.26-0.72-16.46C177.12,192.81,172.72,196.73,176.39,201.7Zm-2-19.4c1.4,0,.64,5.57-0.27,10.51,0.91-8.33-.46-8.89-0.46-9.9A0.68,0.68,0,0,1,174.39,182.3Zm-1.66,3c1.56,4.55-3.5,11,2.1,16C167.5,197.09,172.73,191.25,172.73,185.31Zm-1.6-1.23c1.5,0,.83,4.32.08,6.8,0.38-4.81-.87-5.18-0.87-6A0.78,0.78,0,0,1,171.13,184.08Z" transform="translate(-60.01 -164.33)"/><path class="cls-33" d="M219.55,175.06v-1.48a3.16,3.16,0,0,0-1.55-1.11q0,0.74,0,1.47A3.2,3.2,0,0,1,219.55,175.06Z" transform="translate(-60.01 -164.33)"/><path class="cls-33" d="M219.11,176.67a1.59,1.59,0,0,0-1-1.8l-0.13-.06c0,0.81-.08,1.6-0.13,2.37a6.94,6.94,0,0,1,1.26,1.67C219.1,178.14,219.11,177.42,219.11,176.67Z" transform="translate(-60.01 -164.33)"/><path d="M252.45,421.7l-0.92-2a1.38,1.38,0,0,0-.46-2.68h-2v4.64H250v-1.88h0.63l0.88,1.88h1Zm-1.38-2.76H250v-1h1.09A0.51,0.51,0,0,1,251.07,418.95Z" transform="translate(-60.01 -164.33)"/><path d="M254.84,419.38a4.07,4.07,0,1,0-4.07,4.07A4.07,4.07,0,0,0,254.84,419.38Zm-7.26,0a3.19,3.19,0,1,1,3.19,3.19A3.19,3.19,0,0,1,247.58,419.38Z" transform="translate(-60.01 -164.33)"/><path d="M190.81,209.39h-0.94a1.21,1.21,0,0,1-.55.94h2A1.21,1.21,0,0,1,190.81,209.39Z" transform="translate(-60.01 -164.33)"/><path d="M181.67,208.37c-1,1.86.7,2.66,1.29,1.65C182.75,210,181.62,210.22,181.67,208.37Z" transform="translate(-60.01 -164.33)"/><path d="M201.8,210.25c-0.32.1-1.15,0.22-1.26-1.56C199.69,210.58,201.39,211.13,201.8,210.25Z" transform="translate(-60.01 -164.33)"/><path d="M150.82,267.05s0.93,0.17,3.1.4c0,0,.43-4.39,8.11-6.88C151.23,261.88,150.82,267.05,150.82,267.05Z" transform="translate(-60.01 -164.33)"/><path d="M185.86,209.87c-0.21,0-1.28.16-1.4-1.68C183.59,210.14,185.43,210.77,185.86,209.87Z" transform="translate(-60.01 -164.33)"/><path d="M194.79,210.4a1.21,1.21,0,0,1-.63-1h-0.65a1.36,1.36,0,0,1-.72.92Z" transform="translate(-60.01 -164.33)"/><path d="M187.16,209.43h-0.65a1.21,1.21,0,0,1-.63,1l2-.05A1.35,1.35,0,0,1,187.16,209.43Z" transform="translate(-60.01 -164.33)"/><path d="M192.95,209.73c-0.21,0-1.22.24-1.34-1.66C190.71,210.08,192.51,210.66,192.95,209.73Z" transform="translate(-60.01 -164.33)"/><path d="M184.74,210.43a1.26,1.26,0,0,1-.73-0.89l-0.5,0a1.14,1.14,0,0,1-.6,1Z" transform="translate(-60.01 -164.33)"/><path d="M189.14,209.9c-0.21,0-1.32.17-1.45-1.73C186.8,210.18,188.7,210.84,189.14,209.9Z" transform="translate(-60.01 -164.33)"/><path d="M178.16,202c-1.9-6.05,3.07-5.08,1.92-14.93C180.63,194.62,173.41,197.24,178.16,202Z" transform="translate(-60.01 -164.33)"/><path d="M199.4,210.64l1,0.07a1,1,0,0,1-.42-1l-0.44,0a1.11,1.11,0,0,1-.72.88Z" transform="translate(-60.01 -164.33)"/><path d="M201.49,210.82l1.4,0.15a0.72,0.72,0,0,1-.36-0.53,0.32,0.32,0,0,0-.55,0A1,1,0,0,1,201.49,210.82Z" transform="translate(-60.01 -164.33)"/><path d="M181.16,208.12l0.5-.06a3.67,3.67,0,0,0,.66-2.8c-0.91.11-1.45,0.2-1.45,0.2a2.54,2.54,0,0,1-.76,2.49A1.23,1.23,0,0,1,181.16,208.12Z" transform="translate(-60.01 -164.33)"/><path d="M170,187.24c0.5,4.75-3.64,9.06,2,12.58C167.82,194.43,171.48,194.33,170,187.24Z" transform="translate(-60.01 -164.33)"/><path d="M173.83,210.32c-0.15.24-.63,0.24,0-1C172.44,211,173.68,212.22,173.83,210.32Z" transform="translate(-60.01 -164.33)"/><path d="M166.74,195.57c-1.2-1.79-.78-3.82-2.14-5.18C165.26,191.58,164.93,193.85,166.74,195.57Z" transform="translate(-60.01 -164.33)"/><path d="M170,198.9c-3-3-2.33-7.15-3-9.66C167.3,192.3,166,195.86,170,198.9Z" transform="translate(-60.01 -164.33)"/><path d="M196.21,209.78c-0.21,0-1.22.24-1.34-1.66C194,210.13,195.76,210.71,196.21,209.78Z" transform="translate(-60.01 -164.33)"/><path d="M181.18,209.71l-0.44,0a1,1,0,0,1-.42,1l1.57-.12A1.11,1.11,0,0,1,181.18,209.71Z" transform="translate(-60.01 -164.33)"/><path d="M177.79,210.15c-0.29.13-1.3,0.55-.82-1.47C175.14,210.7,177.49,211.81,177.79,210.15Z" transform="translate(-60.01 -164.33)"/><path d="M180.22,210c-0.19,0-1.33.36-1.16-1.45C177.9,210.48,179.72,211.32,180.22,210Z" transform="translate(-60.01 -164.33)"/><path d="M179.19,210.82a1,1,0,0,1-.63-0.86l-0.37,0a0.91,0.91,0,0,1-.4,1Z" transform="translate(-60.01 -164.33)"/><path d="M176.85,211.1a0.93,0.93,0,0,1-.71-0.83l-0.13,0a1.42,1.42,0,0,1-.7,1.05Z" transform="translate(-60.01 -164.33)"/><path d="M175.61,210.18c-0.36.21-1,.36-0.65-1.06C173.35,211.09,175.38,211.84,175.61,210.18Z" transform="translate(-60.01 -164.33)"/><path d="M197.76,210.54a1.14,1.14,0,0,1-.6-1l-0.5,0a1.26,1.26,0,0,1-.73.89Z" transform="translate(-60.01 -164.33)"/><path d="M172.73,185.31c0,5.93-5.24,11.78,2.1,16C169.23,196.35,174.29,189.87,172.73,185.31Z" transform="translate(-60.01 -164.33)"/><path d="M208.16,211.05a0.31,0.31,0,0,1-.48-0.19C207.66,211.37,208.12,211.46,208.16,211.05Z" transform="translate(-60.01 -164.33)"/><path d="M175.67,185.24c0,7.2-4.34,13.11.72,16.46C172.72,196.73,177.12,192.81,175.67,185.24Z" transform="translate(-60.01 -164.33)"/><path d="M207.44,210.78c-0.15.25-.55,0.58-0.88-0.41C206.56,211.48,207.44,211.72,207.44,210.78Z" transform="translate(-60.01 -164.33)"/><path d="M204.24,210.51c-0.25.12-1.13,0.45-1.26-1.56C202.14,210.84,203.83,211.39,204.24,210.51Z" transform="translate(-60.01 -164.33)"/><path d="M199.1,210c-0.2,0-1.15.22-1.26-1.56C197,210.3,198.69,210.85,199.1,210Z" transform="translate(-60.01 -164.33)"/><path d="M203.83,211.1l1.54,0.24a1,1,0,0,1-.53-0.54,0.3,0.3,0,0,0-.45-0.1A1.11,1.11,0,0,1,203.83,211.1Z" transform="translate(-60.01 -164.33)"/><path d="M206.15,210.6c-0.23.18-.87,0.5-1.27-1.18C204.7,211.27,206,211.46,206.15,210.6Z" transform="translate(-60.01 -164.33)"/><polygon points="66.88 115.39 63.17 122.14 67.41 122.14 66.88 115.39"/><path d="M304.88,270.8H273.19a28.73,28.73,0,0,0-15.07-4c-6.84,0-12.31,1.47-16.48,4h-7.51a4,4,0,0,0-.95-4.46c-1.19-7.2-11.67-8.75-11.67-8.75a6.61,6.61,0,0,0-3.85-5.1,2.91,2.91,0,0,0,0-3.5v-7.8c0-2.86-3.7-4.81-3.7-4.81s0.78-.75.78-3.24v-8.56c0-2-3.08-4.14-3.08-4.14l0-5.55L210.9,212c0.57-4.12-7-6.34-7-6.34l0.41-.46c7.29-2.7,17.3-8.07,17.3-28a3.88,3.88,0,0,0,.43-1.7v-2c0-4.67-14.13-6.78-31.66-6.78s-31.66,2.11-31.66,6.78v2a3.87,3.87,0,0,0,.43,1.7c0,19.93,10,25.3,17.3,28l0.4,0.46s-7.61,2.22-7,6.34l-0.73,2.84,0,5.55s-3.08,2.14-3.08,4.14v8.56c0,2.49.78,3.24,0.78,3.24S163,238.33,163,241.2V249a2.91,2.91,0,0,0,0,3.5,6.6,6.6,0,0,0-3.85,5.1s-10.48,1.55-11.67,8.75a4,4,0,0,0-.95,4.46H102s-5.26-4-14.52-4c-13,0-17.34,6.53-18.2,9.88-2,7.92,5,11.34,5,11.34a29.05,29.05,0,0,1-4.67-2.23l-6.52,11.69s4.75,4.64,15.89,4.64a27.28,27.28,0,0,0,11.78-2.5H95c1.53,2,3.68,5.5,3,8.2l-5.26,20.35h14.62l11.56,62.22c1.48,8,8.51,17.7,15.61,21.61l55.86,30.76L246.2,412c7.11-3.91,14.13-13.64,15.61-21.61l11.64-62.68c5.14-1.43,9.23-4.75,10.36-9.17a8.1,8.1,0,0,0-1.57-7.47l5.83-11.44h11.47l1.76-6.86c7,0,14.49-3.42,16.18-10C319.24,275.88,313.46,270.8,304.88,270.8Zm-68.93,13.69c1.71-6.7,7.83-13.67,22.18-13.67a23.33,23.33,0,0,1,8,1.19l-2.8,4.82a21.66,21.66,0,0,0-6-.71c-8.13,0-11.6,4.25-12.65,8.37-0.69,2.7,0,8.37,9,8.37a23,23,0,0,0,7-.94l0.71,5a33.37,33.37,0,0,1-9.71,1.24C238.37,298.17,234.45,290.33,235.94,284.49ZM193.28,385.1l0.65-.71c1.71-.42,2.87-0.65,4.05-0.89,18.59-.81,34.3-4.5,39.37-9.37C234.06,380.14,215.65,384.73,193.28,385.1Zm-49.95-11c5.08,4.87,20.78,8.56,39.37,9.37,1.19,0.23,2.34.47,4.05,0.89l0.65,0.71C165,384.73,146.62,380.14,143.33,374.14Zm-0.86-55.84-2.87,4.91H122l5.34-20.88h7.43l-4.09,16h11.81Zm41.8-27.54-2.87,4.91H163.77l5.34-20.88h7.43l-4.09,16h11.81Zm2.94-16h27.43l3.24,7.62,7.26-7.62H233L220.4,287.3l-2.14,8.37h-7.43l2.15-8.38-5.35-11.84-1.09,4.25H195.91l-0.83,3.23h10l-1.25,4.91h-10l-0.75,2.92h12.74l-2.87,4.91H184.39l4.09-16A4.9,4.9,0,0,0,187.22,274.79ZM237,365.67a4.38,4.38,0,0,0-1.31-2.93,4.46,4.46,0,0,1,1.93,3.31c0,3-4.43,5.69-11.71,7.75C232.86,371.62,237,368.78,237,365.67Zm-21.25,7.05A19.61,19.61,0,0,0,217,355.17c13.35-2.22,15.81-5.7,15.81-5.7l0.2,13.36C235.62,365.42,231.23,370.16,215.78,372.73Zm-70.83-10a4.38,4.38,0,0,0-1.31,2.93c0,3.1,4.18,5.95,11.09,8.13C147.45,371.74,143,369,143,366.05A4.45,4.45,0,0,1,145,362.74Zm2.69,0.09,0.2-13.36a6.28,6.28,0,0,0,1.77,1.4l-0.2,13.2c0,3.19,4.5,4.28,4.5,4.28a4.23,4.23,0,0,1-1.46-3.18l0.19-12.83a53.86,53.86,0,0,0,11,2.83,19.61,19.61,0,0,0,1.24,17.55C149.45,370.16,145.06,365.42,147.64,362.83Zm22.23-31.69a5.55,5.55,0,0,1-1.12,1.4c-11.65-1-17.2-2.86-19.61-4.33h2.27C154.75,329.51,160.71,330.68,169.87,331.14Zm-13.74-2.94h14.93l-0.62,1.69c0,0.12-.1.23-0.14,0.35A100.72,100.72,0,0,1,156.13,328.21Zm-8.33,15.06,0.13-14.54a6.52,6.52,0,0,0,1.78,1.07l-0.13,15.3a14.79,14.79,0,0,0,3,1.74L152.77,331a75.32,75.32,0,0,0,14.15,2.59L161.86,335l2.19,5a17.54,17.54,0,0,1,1.52,7.1,16.25,16.25,0,0,1-.4,3.66C150.57,348.61,147.79,344.74,147.8,343.27Zm17,8.94c-0.16.51-.34,1-0.53,1.47-15.89-2.58-17.23-7.16-17.23-7.16V345S148.39,349.65,164.77,352.21ZM164.05,369a18.61,18.61,0,0,1-1.06-6.24c0-7.32,3.42-8.71,3.42-15.68a18.46,18.46,0,0,0-1.59-7.44l-1.8-4.08,4.23-1.25a6.13,6.13,0,0,0,4-4.13l1.87-5.11,4.16,3.44a7.27,7.27,0,0,0,4.59,1.87,8.66,8.66,0,0,0,5.81-2.47l2.68-2.65,2.68,2.65a8.66,8.66,0,0,0,5.81,2.47,7.27,7.27,0,0,0,4.59-1.87l4.16-3.44,1.87,5.11a6.13,6.13,0,0,0,4,4.13l4.23,1.25-1.8,4.08a18.48,18.48,0,0,0-1.59,7.44,18.88,18.88,0,0,0,1.8,7.94,18.76,18.76,0,0,1,1.62,7.74c0,9.8-7.3,16.84-15.38,18.92-4,1-5.85,1.11-8.83,1.94-0.39.41-3.14,3.38-3.14,3.38s-2.75-3-3.14-3.38c-3-.83-4.84-0.93-8.83-1.94A20.6,20.6,0,0,1,164.05,369Zm51.46-18.26a16.22,16.22,0,0,1-.4-3.66,17.53,17.53,0,0,1,1.52-7.1l2.19-5-5.06-1.49c16-1.68,19-4.81,19-4.81l0.13,14.54C232.89,344.74,230.11,348.61,215.51,350.76ZM233.67,345v1.55s-1.35,4.58-17.23,7.16c-0.19-.48-0.37-1-0.53-1.47C232.29,349.65,233.67,345,233.67,345Zm-21.74-12.43a5.51,5.51,0,0,1-1.12-1.4c9.16-.46,15.12-1.63,18.46-2.94h2.27C229.13,329.68,223.58,331.5,211.93,332.54Zm-1.56-2.3c0-.12-0.1-0.22-0.14-0.35l-0.62-1.69h14.93A100.7,100.7,0,0,1,210.38,330.25ZM202,323.52c-10.67,0-12.52-4.82-11-10.75S196.88,302,207.54,302s12.52,4.81,11,10.75S212.7,323.52,202,323.52Zm-14.63-21.19h7.9l-12.64,12.51-2.14,8.37h-7.43l2.14-8.38-5.65-12.5h7.32l3.24,7.62Zm-21.86,0,3,20.88h-8l-0.38-4.81h-7l-2.64,4.81h-8.22L156,302.33h9.58Zm92.24,8.14-4.19,4.91h-4.66l-2,7.83h-7.43l4.09-16a4.9,4.9,0,0,0-1.26-4.91h20.57l-4.18,4.91H251l-0.83,3.24h7.59Zm-15.67-8.14-4.19,4.91h-7.7l-0.83,3.24H237l-4.18,4.91h-4.66l-2,7.83h-7.43l4.09-16a4.9,4.9,0,0,0-1.26-4.91h20.57Zm-71.38-131.9,1.88-.26a137.76,137.76,0,0,1,15.66-.91h2.06c6.44,0,11.55.27,15.58,0.68,1.67,0.17,3.16.36,4.48,0.57,1.78,0.28,3.25.59,4.45,0.9a19.44,19.44,0,0,1,3.15,1.07,3.16,3.16,0,0,1,1.55,1.11v1.48a3.2,3.2,0,0,0-1.58-1.12,19.72,19.72,0,0,0-3.17-1.07c-1.18-.31-2.62-0.61-4.36-0.89-1.28-.2-2.72-0.39-4.33-0.56a155.09,155.09,0,0,0-15.76-.69H188a137.89,137.89,0,0,0-15.3.89l-1.88.26c-1.9.28-3.47,0.6-4.75,0.92L166,171.36C167.27,171,168.84,170.71,170.74,170.43Zm-9.6,4.63v-1.48a3.6,3.6,0,0,1,1.83-1.23l0.13,1.43A3.82,3.82,0,0,0,161.13,175.06Zm0.43,1.61a1.59,1.59,0,0,1,1-1.8l0.56-.24,0.15,1.69a4.17,4.17,0,0,1,3-.85l-0.15-1.78c1.28-.32,2.85-0.63,4.75-0.91l1.88-.25a137.57,137.57,0,0,1,15.13-.88h2.39a154.88,154.88,0,0,1,15.83.7c1.59,0.17,3,.35,4.28.55,1.71,0.27,3.13.57,4.3,0.87a20.14,20.14,0,0,1,3.19,1.07l0.13,0.06a1.59,1.59,0,0,1,1,1.8c0,0.75,0,1.48,0,2.18a6.94,6.94,0,0,0-1.26-1.67,4.32,4.32,0,0,0-3-1.26H214.6a4.8,4.8,0,0,0-3.27,1.55,8.46,8.46,0,0,0-.91-0.82,9,9,0,0,0-4.18-1.79,10.18,10.18,0,0,0-1.6-.13,8.83,8.83,0,0,0-6.36,2.43,12.12,12.12,0,0,0-8-2.72,13.86,13.86,0,0,0-2.56.24,11.62,11.62,0,0,0-5.39,2.48,8.82,8.82,0,0,0-6.36-2.43,9.84,9.84,0,0,0-3,.44,8.89,8.89,0,0,0-1.84.82,8.62,8.62,0,0,0-1.87,1.47,4.76,4.76,0,0,0-3.43-1.56,5,5,0,0,0-4.31,2.93C161.58,178.14,161.57,177.42,161.57,176.67Zm0.12,3.74a7.24,7.24,0,0,1,1.7-2.72c0.07,8.68,2.34,13.25,2.34,13.25,0-1.71-.89-3.26.27-3.26a1,1,0,0,1,.72.77,0.59,0.59,0,0,1,.45-0.28s-0.78-3.06-1.31-11.52h0.05a4.38,4.38,0,0,1,3.42,2,7.12,7.12,0,0,1,1.95-1.79,8.25,8.25,0,0,1,1.84-.88,9,9,0,0,1,2.9-.46,7.77,7.77,0,0,1,6.32,2.74,10.27,10.27,0,0,1,5.44-2.78,13.08,13.08,0,0,1,2.56-.25,11,11,0,0,1,8,3,7.77,7.77,0,0,1,6.32-2.74,9.43,9.43,0,0,1,1.59.13A8.34,8.34,0,0,1,210,177.2a6.64,6.64,0,0,1,1.39,1.4,4.61,4.61,0,0,1,2.59-1.87,3.56,3.56,0,0,1,.83-0.1,3.81,3.81,0,0,1,3,1.51,7.78,7.78,0,0,1,1.26,2.25c-1.17,17.33-10.49,20.6-16.15,22.76a1.5,1.5,0,0,0-.44-0.39c2.71-2.48,11.63-4.33,14.53-12.62-4.64,8-9.58,8.15-15.49,12.14l-0.62-.22c4.7-3.69,11.91-5.23,14.64-11.35-3.44,5.74-8.24,6.06-15.43,11.12l-0.83-.19c3.67-3.59,11-3.85,14.09-11.41-4.62,7.56-9.89,6.24-15.18,11.21l-0.72-.1c4.66-4.86,10.51-4,12.82-12.17-4.33,8.23-7.76,5.75-14.29,12l-0.85-.07c3.59-5.2,11.43-4,12.38-14.44-3.33,10.44-9.94,8.22-14.24,14.34l-0.91,0c3.17-6,10.84-5,12-16C201,196.69,194,193.83,190.07,201H189c1.79-5.53,12.44-7.75,11-15.6-0.43,7.94-9.77,8.35-12.84,15.65l-0.71,0c2.09-6.05,7.75-7.39,8.36-14-2,6.62-8.42,8.1-10,14.09l-0.74.07c1-5.81,4.84-6.92,5.5-12.68-1.81,5.88-6,5.81-7.61,13l-0.91.18c-0.94-5.62,3.58-4.67,4-13.38-1.6,8.31-7.22,7.14-5.66,13.83a3.22,3.22,0,0,0-1.67,1C172.18,201,162.86,197.73,161.69,180.41Zm20.13,22v-0.33l0.91-.15c0.48-.07,1-0.14,1.54-0.19s1.28-.12,2-0.16c1.23-.08,2.59-0.12,4.07-0.12a59.66,59.66,0,0,1,6.11.28c0.74,0.08,1.41.17,2,.27,2.39,0.4,3.69,1,3.69,1.56a14.18,14.18,0,0,0-3.69-1c-0.59-.1-1.26-0.19-2-0.27a58.06,58.06,0,0,0-6.11-.29c-1.53,0-2.88,0-4.07.12q-1.08.07-2,.17t-1.54.19a15.3,15.3,0,0,0-4.22,1c0-.37.54-0.74,1.57-1.07v0.28Zm-2.41,2.17a46.47,46.47,0,0,1,10.92-1.06,46.7,46.7,0,0,1,10.94,1.06c-2.66,3.85,7.18,2.75,7.18,6.58l-0.18-.07c-0.12.58-.76,0.42-0.71-0.23a0.54,0.54,0,1,1-1.07,0l-0.24-.05a0.67,0.67,0,0,1-.63.54,20.78,20.78,0,0,1,2.53.62l-0.31.27a29.38,29.38,0,0,0-4.93-.92c-1-.12-2.16-0.25-3.5-0.35-2.42-.19-5.41-0.32-9.06-0.32-1.9,0-3.61,0-5.17.1l-2.25.11q-1.41.08-2.59,0.19a37.65,37.65,0,0,0-7.47,1.19l-0.31-.27a20.8,20.8,0,0,1,2.51-.62,0.84,0.84,0,0,1-.71-0.79l-0.12,0c0,1.25-1.1,1.09-1.1.28,0.06,0.65-.58.8-0.71,0.23l-0.18.07C172.23,207.36,182.07,208.46,179.41,204.61Zm-7.5,8.91a3.34,3.34,0,0,1,1.74-.78v1.1a33,33,0,0,1,3.4-.58v-1.16c0.92-.12,2-0.23,3.28-0.33,0.79-.06,1.65-0.11,2.59-0.16l2.25-.09c1.54,0,3.25-.07,5.17-0.07,3.71,0,6.68.1,9.06,0.25,1.35,0.09,2.51.19,3.5,0.31,5.3,0.61,5.88,1.51,5.88,1.51v1.25s-1.19-.7-5.88-1.22c-1-.11-2.16-0.21-3.5-0.3C197,213.1,194,213,190.34,213c-1.91,0-3.62,0-5.17.08l-2.25.09c-0.94,0-1.8.1-2.59,0.16-6.81.51-8.42,1.46-8.42,1.46v-1.25Zm-0.4,2.51c0-.26.54-0.56,1.67-0.86l0,4.78c0.62-.09,1.45-0.19,2.55-0.28l0-4.18a1.1,1.1,0,0,1,.6-0.9c1-.14,2.24-0.26,3.62-0.37q1.41-.11,3.07-0.18l2.35-.09c1.52,0,3.16-.07,5-0.07,3.56,0,6.56.09,9.06,0.25q2,0.12,3.5.29c4.31,0.45,6.27,1.11,6.28,1.6l0,5.1s-1.17-.45-6.3-0.76c-1-.06-2.17-0.12-3.5-0.17-2.41-.09-5.39-0.14-9.06-0.14-1.9,0-3.62,0-5.16,0l-2.44.05c-2,.06-3.69.13-5.07,0.22-5,.32-6.19.75-6.19,0.75ZM171.39,222a13.87,13.87,0,0,1,1.94-.29,26.6,26.6,0,0,0-2.41,1.92c0.75-.07,1.67-0.15,2.79-0.22a22.61,22.61,0,0,1,2.22-1.92l2.15-.12c1.32-.06,2.88-0.12,4.72-0.16l2.22,0c1.59,0,3.35,0,5.31,0,3.79,0,6.85.05,9.31,0.12,1.41,0,2.62.09,3.66,0.15a34.47,34.47,0,0,1,6,.6,9.53,9.53,0,0,1,3.35,2.84,45.46,45.46,0,0,0-6.41-.65c-1.09-.06-2.35-0.13-3.8-0.18-3.09-.12-7.05-0.2-12.08-0.2-2.31,0-4.4,0-6.28,0l-2.2,0c-2.85.06-5.15,0.16-7,.26a47.72,47.72,0,0,0-6.82.67A9.55,9.55,0,0,1,171.39,222Zm1.34,10.11V225l1.87-.1c1.9-.09,4.28-0.18,7.21-0.24l2.21,0c1.9,0,4,0,6.31,0,5,0,9.07.08,12.23,0.18,1.42,0,2.67.1,3.75,0.16,4.21,0.21,6,.44,6,0.44v8a39.31,39.31,0,0,0-6-.51c-1.06,0-2.3-.1-3.75-0.14-3.06-.09-7-0.15-12.23-0.15-2.34,0-4.44,0-6.31,0l-2.21,0c-3,0-5.37.12-7.21,0.21a40.6,40.6,0,0,0-6.2.52v-8s0.5-.07,1.62-0.16v7.14ZM169,234.85l1.73-.13c2,3.93-3.05,3.61-3.52,6.3l3.31-.09c0.63-2.18,4.8-1.83,2.68-6.37l1.74-.1c2-.11,4.48-0.23,7.16-0.32l2.15-.06c2,0,4-.08,6.06-0.08,4.36,0,8.6.13,12.13,0.3l3.57,0.18c3.42,0.2,5.6.38,5.6,0.38-2.44,4.16,3.56,2.85,3.56,7.12,0,0-2.55-.13-7.37-0.25l-4.12-.09c-3.65-.06-8.12-0.11-13.37-0.11q-3.89,0-7.21,0l-2.18,0c-2.91,0-5.43.08-7.54,0.13-5.18.12-7.92,0.26-7.92,0.26C165.48,237.7,171.49,239,169,234.85Zm-3.56,8,1.56,0v6.25l3.23-.06v-6.23l3.11,0,7.53,0h9.43c4.89,0,9.48,0,13.35,0l4.12,0,7.39,0.07V250s-2.69-.06-7.39-0.12l-4.12,0c-3.73,0-8.24-.06-13.35-0.06l-7.18,0h-2.24l-7.53.07c-5,.06-7.9.13-7.9,0.13v-7.15Zm0.7,8.73,1.79-.06c1.45,4-4.81,2.49-4.81,5.91,0.77,0,1.83.1,3.23,0.16,0-3.57,6.41-1.77,4.73-6.14l4.27-.07,5.75-.05h2.3l6.92,0c6.75,0,11.88,0,15.64.09l3.37,0.05c3.59,0.07,5.15.13,5.15,0.13-1.65,4.23,4.88,1.55,4.69,6.5,0,0-2,.19-7.55.37l-4,.1c-4.26.09-9.9,0.16-17.26,0.16-3.05,0-5.81,0-8.29,0l-2.31,0c-2.41,0-4.53-.06-6.39-0.1-8.87-.19-11.86-0.48-11.86-0.48C161.3,253.17,167.82,255.85,166.18,251.62ZM149,270.2a2,2,0,0,1-.29-1.49s3.62,0.51,10.18.84a248.25,248.25,0,0,0,27.83-.28q-4.15,0-7.75,0l-2.94,0c-6.27-.11-11.22-0.31-15.05-0.52a109.84,109.84,0,0,1-11.32-1c0.71-7,11.62-7.9,11.62-7.9s0.95,0.33,10.35.55c2.11,0,4.64.09,7.68,0.12l2.91,0,8.08,0c6.7,0,11.85,0,15.83-.11l4.67-.1c7.7-.21,8.52-0.5,8.52-0.5s10.91,0.86,11.62,7.9a1.79,1.79,0,0,1,1,1.14,2,2,0,0,1-.3,1.43s-1.63.28-6.17,0.6H155.22C150.67,270.48,149,270.2,149,270.2Zm-9.44,4.59h11.33l4.58,11.64,3-11.64h7.43l-5.34,20.88h-8l-5.06-12.84-3.29,12.84h-7.43l4.09-16A4.9,4.9,0,0,0,139.6,274.79Zm-6.53,0,3,20.88h-8l-0.38-4.81h-7l-2.64,4.81h-8.22l13.58-20.88h9.58ZM93.46,290.91c-1.21,4.75-7.26,7.25-14.5,7.25s-10.55-2-10.55-2l2.78-5a20.17,20.17,0,0,0,8.5,1.73c2.52,0,4.94-.79,5.34-2.36,1.14-4.46-14.21-3.74-11.89-12.81,0.82-3.21,5.24-6.88,14.33-6.88A22.09,22.09,0,0,1,96,272.26l-2.62,5.09a16.59,16.59,0,0,0-6.56-1.22c-3,0-5,.86-5.27,2C80.48,282.21,95.77,281.9,93.46,290.91Zm1.41-11.21,2.5-4.91h21.91l-2.5,4.91h-6.62l-4.09,16H98.64l4.09-16H94.87Zm12.41,36.65-1.76,6.86H98.09l4.09-16a4.9,4.9,0,0,0-1.26-4.91h13c5.81,0,9.83,2.71,8.73,7s-6.51,7-12.32,7h-3.09Zm83.06,118.93L138.95,408.6l51.39,22.58,51.39-22.58Zm64.23-48.51c-1.45,6.71-7.85,14.27-14.22,16.81l-50,19.93-50-19.93c-6.37-2.54-12.77-10.1-14.22-16.81l-12.67-58.57h7.78l12.32,57c0.92,4.23,5.58,9.75,9.6,11.35l47.19,18.81,47.19-18.81c4-1.6,8.69-7.12,9.6-11.35l12.32-57h3.61a33.41,33.41,0,0,0,4.11.3Zm24.84-78.9a14.22,14.22,0,0,0-5.25-.95c-2.53,0-3.87.71-4,1.2-0.53,2.08,11.53,2.68,9.79,9.46-1,3.9-5.85,5.93-12,5.93s-8.84-1.62-8.84-1.62l2.55-4.69a17,17,0,0,0,6.94,1.41c2.16,0,3.76-.58,4-1.4,0.56-2.19-11.59-2.45-9.77-9.54,0.87-3.42,5.45-5.66,12-5.66a18.54,18.54,0,0,1,7,1.11Zm8.61-20c-1.68,6.55-7.38,8.09-13.94,8.09s-11.48-1.53-9.8-8.09l3.35-13.11h7.44l-3.36,13.11c-0.63,2.45,1.17,3.18,3.62,3.18s4.63-.73,5.25-3.18l3.35-13.11h7.43Zm25.58-6.09c-1.1,4.3-6.51,7-12.32,7H298.2l-1.75,6.86H289l5.34-20.88h10.53C310.69,274.79,314.71,277.5,313.61,281.8Z" transform="translate(-60.01 -164.33)"/><path d="M304.61,279.7h-4.08l-1.07,4.2h4.08a2.9,2.9,0,0,0,2.64-2.1A1.58,1.58,0,0,0,304.61,279.7Z" transform="translate(-60.01 -164.33)"/><path d="M115.26,309.34a1.58,1.58,0,0,0-1.56-2.1h-4.08l-1.08,4.2h4.08A2.89,2.89,0,0,0,115.26,309.34Z" transform="translate(-60.01 -164.33)"/><path d="M206.28,306.92c-4.3,0-6.28,2.62-7.11,5.85s-0.19,5.85,4.11,5.85,6.28-2.62,7.11-5.85S210.59,306.92,206.28,306.92Z" transform="translate(-60.01 -164.33)"/><polygon points="99.89 149.67 99.36 142.93 95.65 149.67 99.89 149.67"/><path d="M208.25,347.08a25.08,25.08,0,0,1,1.3-7.83,12,12,0,0,1-3.94-3.52L169,363.21a13.39,13.39,0,0,0,7.65,11.39l31.83-23.91A23.66,23.66,0,0,1,208.25,347.08Zm-23,18.62-2.83,2.12-3.05-4.67v7l-2.68,2v-9.86a1.37,1.37,0,0,0-1.33-1.43l3.79-2.85,3.42,5.24v-7.8l2.68-2V365.7Zm10.8-8.11-2.62,2v-4.49l-3,2.27v4.49l-2.75,2.07V354a1.37,1.37,0,0,0-1.33-1.43l4.08-3.06v4.54l3-2.27v-4.54l2.62-2v12.28Zm9.88-7.42-7.6,5.71V346a1.37,1.37,0,0,0-1.33-1.43l4.08-3.06v9.15L206,347A15.54,15.54,0,0,0,206,350.17Z" transform="translate(-60.01 -164.33)"/><path d="M190.34,384.17s1.81-2,2.09-2.22c2.18-.78,5.13-1.06,9.41-2.14,9-2.28,13.93-9.83,13.93-17,0-6.54-3.42-8.55-3.42-15.7A23.33,23.33,0,0,1,215,336.81s-6.53-.57-8.3-8.5c0,0-3.92,4-7.89,4-5.12,0-8.48-4.35-8.48-4.35s-3.37,4.35-8.48,4.35c-4,0-7.89-4-7.89-4-1.77,7.94-8.3,8.5-8.3,8.5a23.34,23.34,0,0,1,2.66,10.27,20,20,0,0,1-.1,2c-0.56,5.56-3.31,7.79-3.31,13.66,0,7.2,4.93,14.76,13.93,17,4.28,1.08,7.23,1.36,9.4,2.14C188.53,382.21,190.34,384.17,190.34,384.17Zm-23.51-21.39c0-6,3.42-8.14,3.42-15.7a22.55,22.55,0,0,0-1.93-9s4.44-.9,6.51-6.52a11.31,11.31,0,0,0,7,2.75,12.67,12.67,0,0,0,8.48-3.58,12.67,12.67,0,0,0,8.48,3.58,11.32,11.32,0,0,0,7-2.75c2.07,5.62,6.51,6.52,6.51,6.52a22.57,22.57,0,0,0-1.92,9c0,7.56,3.42,9.75,3.42,15.7,0,8.32-6.48,13.62-12.5,15.14-4.76,1.21-7.87,1.35-10,2.36,0,0-.76.7-1,1-0.29-.32-1-1-1-1-2.09-1-5.2-1.15-10-2.36C173.32,376.4,166.83,371.1,166.83,362.78Z" transform="translate(-60.01 -164.33)"/><path d="M198.82,336.47a14.49,14.49,0,0,1-8.48-2.91,14.48,14.48,0,0,1-8.48,2.91,12.72,12.72,0,0,1-6.16-1.69,12.15,12.15,0,0,1-4.57,4.47,25.13,25.13,0,0,1,1.3,7.83c0,6.22-2.13,9.14-3,12.66l31.17-23.41A11.27,11.27,0,0,1,198.82,336.47Z" transform="translate(-60.01 -164.33)"/><path d="M190.34,378.69a6.47,6.47,0,0,1,.7-0.64c1.39-.79,6-1.29,9.78-2.25,5.23-1.33,10.85-6,10.85-13,0-3.52-1.54-5.83-2.56-9.37l-29.67,22.28,0.43,0.12c3.77,1,8.38,1.45,9.78,2.25A6.45,6.45,0,0,1,190.34,378.69Z" transform="translate(-60.01 -164.33)"/><path class="cls-1" d="M218.39,378.13a2.44,2.44,0,1,0-2.44,2.44A2.44,2.44,0,0,0,218.39,378.13Zm-4.36,0a1.92,1.92,0,1,1,1.92,1.91A1.92,1.92,0,0,1,214,378.13Z" transform="translate(-60.01 -164.33)"/><path class="cls-1" d="M217,379.52l-0.55-1.18a0.83,0.83,0,0,0-.28-1.61h-1.18v2.79h0.52v-1.13h0.37l0.53,1.13H217Zm-0.83-1.66h-0.65v-0.61h0.65A0.31,0.31,0,0,1,216.12,377.87Z" transform="translate(-60.01 -164.33)"/><path class="cls-1" d="M165.9,400.67v-1.22c7.72-4.07,9.34-4.88,9.34-5.59v-0.2c0-.43-0.19-1.18-2.81-1.18H171c-2.55,0-2.74.71-2.74,1.11V394h-1.88v-0.41c0-.92,1-2.45,4.62-2.44l1.4,0c3.58,0,4.7,1.13,4.7,2.51V394c0,1.27-2.68,2.49-8,5.33h8.27v1.37H165.9Z" transform="translate(-60.01 -164.33)"/><path class="cls-1" d="M187,400.87h-1.48c-3.68,0-4.62-1.45-4.62-2.68,0,0,0-2.85,0-4.48,0-1.19,1-2.61,4.61-2.61h1.65c3.77,0,4.7,1.22,4.7,2.61v4.53C191.82,399.59,191.13,400.87,187,400.87Zm3-7.1c0-.43-0.19-1.28-2.81-1.28l-1.69,0c-2.55,0-2.73.84-2.73,1.23v4.33c0,0.37.13,1.41,2.68,1.41H187c2.94,0,2.94-.9,2.94-1.36v-4.36Z" transform="translate(-60.01 -164.33)"/><path class="cls-1" d="M197.75,400.67v-6.86h-2.12v-1.17c1.62,0,2.92-.92,3-1.57h1v9.6h-1.93Z" transform="translate(-60.01 -164.33)"/><path class="cls-1" d="M211.46,400.82H210c-3.68,0-4.67-1.11-4.67-2.16v-1.79c0-.51.93-1.22,2-1.37a2.16,2.16,0,0,1-1.78-1.2c0-.84,0-1,0-1,0-1.07,1-2.08,4.65-2.08h1.4c3.5,0,4.37,1.11,4.37,2.09,0,0,0,.25,0,1a2,2,0,0,1-1.56,1.27,2,2,0,0,1,1.86,1.27v1.87C216.26,399.81,215.65,400.82,211.46,400.82Zm2.94-3.76c0-.46-0.18-1-2.81-1l-1.73,0c-2.55,0-2.68.58-2.68,0.94v1.65c0,0.38.19,0.9,2.74,0.9h1.61c2.94,0,2.87-.47,2.87-0.88v-1.58Zm-0.22-3.61c0-.37-0.1-1-2.52-1h-1.52c-2.78,0-2.79.54-2.81,0.93,0,0,0,.45,0,0.69,0,0.45.74,0.86,2.6,0.86h1.75c2.1,0,2.55-.48,2.55-0.81S214.17,393.45,214.17,393.45Z" transform="translate(-60.01 -164.33)"/></svg>